<?xml version="1.0" encoding="utf-8"?>
<!-- Generator: Adobe Illustrator 21.1.0, SVG Export Plug-In . SVG Version: 6.00 Build 0)  -->
<svg version="1.1" id="Capa_1" xmlns="http://www.w3.org/2000/svg" xmlns:xlink="http://www.w3.org/1999/xlink" x="0px" y="0px"
	 viewBox="0 0 611 350" style="enable-background:new 0 0 611 350;" xml:space="preserve">
<style type="text/css">
	.st0{fill:url(#SVGID_1_);}
	.st1{opacity:0.9;}
	.st2{fill:#FFFFFF;}
</style>
<linearGradient id="SVGID_1_" gradientUnits="userSpaceOnUse" x1="513.5578" y1="96.8505" x2="-2.4422" y2="271.8505">
	<stop  offset="0" style="stop-color:#FC7323"/>
	<stop  offset="1" style="stop-color:#FFEB3B"/>
</linearGradient>
<polygon class="st0" points="402.3,231 164,231 164,119 447,119 "/>
<title>asset-logos-svg</title>
<g class="st1">
	<path class="st2" d="M223.8,177.6c-0.6,0-0.2-0.6-0.5-0.8c-0.5,0.1-0.9,0.3-1.4,0.6c0.4,0.3,0.7,0.1,1,0.3c0.1,0.3-0.1,0.4-0.3,0.5
		c-1.3,0.8-2.6,1.6-3.9,2.4c-0.3,0.3-0.7,0.3-1.1,0.2c0.2-0.8,0.7-1.4,1.4-1.8s1.4-0.8,2.3-1.3c-2.4-0.3-4.7-1-6.9-2
		c0,1.6,0.5,3.2-0.5,4.6c-0.2-1.4,0.2-2.8-0.5-4.2c-0.5,0.9-0.8,1.9-2.1,2c0.9-0.9,1.1-2,1.7-3.1c-1.6-1-3.2-2.2-4.6-3.4
		c-0.1,8.6-0.1,17.2-0.1,25.8c-1.9,0.1-3.7,0.1-5.5,0c-0.3-0.4-0.4-0.9-0.3-1.3c0-12.1,0-24.1,0-36.2c-0.1-2.4,0-4.9,0.4-7.3
		c0.4-2.2,1.2-4.4,2.3-6.3c0.3-0.5,0.7-0.9,0.6-1.6c-0.1-0.4,0.3-0.6,0.7-0.6c0.1,0.4-0.3,0.6-0.2,1c2.1,0.2,4.2,0.8,6.1,1.6
		c1.9,0.8,3.6,2,5.5,2.9c-0.9-1.6-7-5.2-11.1-5.6c0.9-1.3,2-2.5,3.2-3.6c-0.7-0.3-1.5-0.4-2.3-0.4c-0.9,0-1.9,0-2.8,0
		c-0.4,0-0.8-0.1-0.9-0.5s0.3-0.7,0.8-0.8c1.2-0.3,2.5-0.3,3.7,0.1c0.9,0.3,1.8,0.6,2.8,0.6c0.9-0.1,1.6-0.9,2.5-1.3
		c10.3-5.5,23.1-1.6,28.5,8.7c5,9.5,2.2,21.2-6.6,27.3c-0.3,0.2-0.6,0.3-0.7,0.7c1,0,2,0.3,2.9,0.8c0,0.8-0.9,1.1-1,1.9
		c0.5-0.1,0.9-0.4,1.2-0.8c0.4-0.4,1-0.5,1.4-0.1l0,0c0.7,0.5,1.2,1.2,1.7,1.9c0.3,0.4,0.2,0.9-0.2,1.2c-0.6,0.6-1.3,1.1-2,1.6
		c-0.3,0.2-0.7,0.2-0.8,0.8c1.6-0.3,2.5-1.4,3.9-2c0.6,1.2,1.1,2.5,1.3,3.8c0.1,0.3-0.1,0.6-0.4,0.8l-1,0.6c0.1,0.1,0.1,0.2,0.2,0.2
		c1.5-0.1,1.6,0,1.5,1.4c-0.1,2.2-0.9,4.3-2.3,6c-0.2,0.3-0.5,0.6-0.9,0.7c-1.1-1.2-2.3-2.3-3.5-3.3c-1.3-1-2.7-1.8-3.9-2.8
		c-0.4,0.3-0.3,0.5-0.4,0.8c-0.4,1.9-1,3.8-1.6,5.7c-0.1,0.3-0.2,0.5-0.2,0.8c0,0.4-0.2,0.6-0.7,0.6c-0.5-0.7-0.6-1.5-0.4-2.3
		c0.4-1.7,0.9-3.4,1.6-5.1c0.3-0.7,0.7-1.5,0.2-2.2c0.2-0.5,0.9-0.2,0.9-0.9c-0.3-0.2-0.6-0.2-0.9-0.1c-0.7,0.1-1.3-0.3-1.5-1l0,0
		c-0.2-1.1-1.2-1.9-2.3-1.9c-0.4-0.1-0.9-0.2-1.3-0.4C225.1,180.8,223.8,179.3,223.8,177.6c0.5,0.1,1,0,1.5-0.2l-0.9-1.8
		C224,176.2,223.8,176.9,223.8,177.6z M230.9,176.3c-0.3,0.7-0.8,1.3-1.3,1.8c-0.8-1.1-0.8-1.1-1.4-0.9c0,0.4,0.3,0.7,0.2,1.1
		c-1.7-1.1-1.7-1.1-2.8-0.6c1.3,1.3,2.9,1.7,4.4,2.7c-0.3-1.2,0.6-1.6,1-2.3c0.4-0.7,1-1.4,1.5-2.3C232,176,231.5,176.1,230.9,176.3
		c1.2-2,2.2-4.1,3.1-6.3c0.3-0.7,0.4-1.5,0.3-2.3c-0.2-1.4-0.6-2.8-1.1-4.1c-0.1-0.3-0.2-0.7-0.6-0.9c-0.2,0-0.3,0.1-0.4,0.3
		c-1.4,1.6-2.7,3.3-3.9,5.1c-1.3,2.1-1.4,4.7-0.2,6.9C229.2,177.1,228.7,177,230.9,176.3L230.9,176.3z M212.6,159.5
		c1.4-1.1,3.4-0.9,4.7,0.4c0.7,0.6,1.5,0.9,2.4,1.1c1.9,0.6,4,0.5,5.8-0.4c1-0.5,1.7-1.5,1.8-2.6c0.2-2.2-1.2-4.3-3.4-4.9
		c-1.2-0.3-2.4-0.2-3.6,0.1c-1.2,0.1-2.3,0.6-3.2,1.3c-0.5,0.4-1.1,0.8-1.6,1.3C214.3,156.8,213.3,158.1,212.6,159.5L212.6,159.5z
		 M223.3,171.5c1.2,0.4,2.5-0.1,3.1-1.2c0.6-1,1-2,1.4-3.1c0.1-0.4,0.2-0.9,0.1-1.3c0-0.8-0.5-1.5-1.3-1.7c-0.6-0.2-1.3,0.1-1.7,0.7
		c-0.9,0.9-1.4,2.2-1.3,3.4C223.7,169.4,223.6,170.5,223.3,171.5L223.3,171.5z M228.7,166.2c1.4-1.1,2.6-2.5,3.4-4
		c0.2-0.3,0.1-0.7-0.2-0.9c-0.9-1-2-2-3.1-2.8c-0.6-0.4-0.9-0.3-1.1,0.3c-0.6,1.2-0.7,2.6-0.2,3.8
		C228.1,163.7,228.5,165,228.7,166.2L228.7,166.2z M222.6,171.2c0.7-0.8,0.8-1.2,0.2-1.9c-0.7-1-1.4-2-2.1-2.9
		c-1-1.3-2.3-2.4-3.8-3.2c-0.4-0.2-0.8-0.5-1.4-0.2c1.1,1.5,1.9,3.1,2.9,4.6C219.4,169.2,220.8,170.5,222.6,171.2L222.6,171.2z
		 M214.8,164.2c-0.9,1.7-1.4,6.9-0.8,8.6c-1,1.1-0.9,2.1,0.2,2.4c0.1-0.1,0.1-0.3,0-0.4c-0.2-1.1,0.1-2.2,0.9-3
		c0.4-0.4,0.6-1,0.4-1.6c-0.1-0.7-0.2-1.4-0.2-2.1C215.2,166.7,215,165.4,214.8,164.2L214.8,164.2z M221.4,144.7
		c-0.1-0.3-0.1-0.4-0.2-0.4c-2.7-1.9-5.6-3.4-8.6-4.7c-0.7-0.4-1.6-0.1-2,0.6C214.4,141,217.8,142.9,221.4,144.7L221.4,144.7z
		 M228.1,177c-0.8-1.5-1.7-2.8-1.9-4.5c-0.9,0.4-1.3,1-1,1.9c0.4,1,1,1.9,1.9,2.6C227.3,177.3,227.8,177.3,228.1,177z M218.8,163.9
		c1.5,1.5,2.9,3.1,4.2,4.9c0.3-0.2,0.3-0.4,0.2-0.5c-0.7-1.5-1.5-2.9-2.6-4.2C220.2,163.5,219.6,163.5,218.8,163.9L218.8,163.9z
		 M223.3,147c-1,0.7-3.7,5-3.6,5.8C220.4,152.5,222.9,148.5,223.3,147z M216.1,169.9c0.4-0.8,0.9-1.6,1.3-2.4c0.2-0.5,0-1.1-0.4-1.3
		C215.9,167.5,215.7,168.1,216.1,169.9L216.1,169.9z M231.9,182.7l2.9,0.9c-0.4-0.5-0.8-1-1.4-1.3
		C233,183.1,232.4,182.5,231.9,182.7L231.9,182.7z"/>
	<path class="st2" d="M316.9,181.7c-0.1-1.8-0.1-3.5,0-5.1c1.3-0.4,19-0.4,20.3,0c0.2,0.3,0.2,0.6,0.2,0.9v21.1c0,0.3,0,0.7-0.2,1
		c-1.8,0.1-3.6,0-5.6,0v-8l-0.2-0.1c-2.7,2.4-5.9,4.2-9.4,5c-0.4,0.9,0,1.9-0.3,3H312c-0.3-1,0-2-0.2-3c-2-0.6-3.9-1.4-5.7-2.4
		c-1,0.5-1.4,1.5-2.4,2.1l-6.9-6.9c0.6-0.9,1.5-1.5,2.2-2.4c-1-1.8-1.8-3.7-2.3-5.6c-1-0.3-2.1,0-3.1-0.3v-9.7
		c0.7-0.2,1.5-0.3,2.2-0.2c0.5,0.1,1-0.3,1.1-0.8c0.5-1.7,1.2-3.4,2.1-5c-0.6-0.9-1.5-1.5-2-2.3l7-7c0.6,0.5,1.1,1,1.6,1.6
		c0.3,0.3,0.6,0.5,1,0.2c1.7-0.9,3.4-1.7,5.3-2.2c0.3-1,0-2,0.3-3h9.7c0.4,0.5,0.2,1.1,0.2,1.7c0,1.1,0,1.1,1,1.4
		c1.4,0.4,2.8,1,4.1,1.7c0.4,0.2,0.8,0.4,1.1,0.6l1.6-2.1l7.1,7c-0.4,0.8-1.3,1.2-1.8,2c1.1,1.8,1.9,3.7,2.4,5.8
		c-0.3,0.4-0.6,0.3-0.9,0.3c-1.4,0-2.9,0-4.3,0c-0.6,0.1-1.1-0.3-1.3-0.8c-3.2-7.6-12-11.2-19.6-8c-7.6,3.2-11.2,12-8,19.6
		c3.2,7.6,12,11.2,19.6,8c3.3-1.4,6-3.9,7.6-7.1c0.2-0.3,0.3-0.7,0.3-1.1c-2.3,0-4.7,0-7,0C321.7,181.6,319.3,181.8,316.9,181.7z"/>
	<path class="st2" d="M347.6,193.9v25.9h-5.4c-0.4-0.4-0.3-0.9-0.3-1.4v-35.6c0-0.6,0-1.2,0-1.8c-0.7-11.7,7.4-21.3,18.4-22.7
		c11.5-1.5,22.1,6.6,23.6,18.1c0.1,0.9,0.2,1.8,0.2,2.7c0.1,9.3-6,17.6-15,20.3c-7.5,2.2-14.3,0.6-20.3-4.6
		C348.4,194.5,348,194.2,347.6,193.9z M362.9,194.2c8.3,0,15.1-6.7,15.1-15s-6.7-15.1-15-15.1s-15.1,6.7-15.1,15v0.1
		C347.9,187.5,354.6,194.2,362.9,194.2z"/>
	<path class="st2" d="M290.2,181c-0.5,2-1.2,4-2.3,5.8c0.6,0.9,1.5,1.5,2.1,2.2l-7,7c-0.8-0.5-1.3-1.4-2.2-2
		c-1.8,1.1-3.7,1.9-5.6,2.4c-0.4,1,0,2-0.3,3h-9.7c-0.4-0.9,0-1.9-0.3-2.9c-2-0.5-4-1.3-5.8-2.3c-0.9,0.5-1.3,1.4-2,1.8l-7-7
		c0.4-0.5,0.8-0.9,1.3-1.3c0.3-0.2,0.4-0.7,0.2-1c-1-1.7-1.7-3.6-2.2-5.5c-0.9-0.3-1.9,0-2.8-0.3v-9.8c0.9-0.4,1.8,0,2.8-0.3
		c0.6-2,1.4-4,2.4-5.8c-0.4-0.9-1.3-1.3-1.8-2l7.1-7.3l1.6,2.1c1.9-1.1,4-1.9,6.1-2.5c0.4-0.9,0-1.9,0.3-2.9h9.8
		c0.3,0.9,0,1.9,0.3,2.9c1.5,0.4,2.9,1,4.2,1.7c1.6,0.8,1.6,0.8,2.9-0.5c0.2-0.3,0.5-0.5,0.8-0.7l7,7.1c-0.4,0.6-1.3,1.2-2,2.1
		c1,1.7,1.8,3.6,2.2,5.5c-0.2,0.2-0.6,0.3-0.9,0.3c-1.4,0-2.8,0-4.2,0c-0.7,0.1-1.3-0.4-1.4-1c-1.8-4.2-5.3-7.3-9.7-8.5
		c-8-2.4-16.4,2.1-18.8,10.2c-2.4,8.1,2.1,16.4,10.2,18.8c7.4,2.2,15.2-1.5,18.2-8.5c0.2-0.6,0.8-1,1.4-0.9
		C286.7,181.1,288.4,181,290.2,181z"/>
	<path class="st2" d="M295.8,211.6c-0.4,0.2-0.8,0.1-1.1-0.1c-0.1-2.1,0-4.2-0.1-6.2c0.2-0.2,0.6-0.3,0.9-0.2c0.3,0.2,0,0.6,0.3,0.8
		c1.3-1,2.5-1.3,3.7,0.1c0.3-0.1,0.5-0.3,0.7-0.5c0.9-0.7,2.2-0.6,2.9,0.2c0.3,0.3,0.4,0.7,0.5,1.1c0.2,1.6,0.2,3.1,0,4.7
		c-0.1,0.1-0.3,0.2-0.5,0.2s-0.4,0-0.5-0.2c-0.1-1-0.1-2.1-0.1-3.1c0-0.4,0-0.9-0.1-1.3c-0.2-0.6-0.5-1-1.1-1s-1.2,0.4-1.3,1.1
		c-0.1,0.5-0.1,1.1-0.1,1.6c0,0.9,0,1.8-0.1,2.7c-0.3,0.2-0.6,0.2-0.9,0.1c-0.1-0.1-0.2-0.2-0.2-0.4c0-1,0-2.1,0-3.1
		c0-1.3-0.5-2.1-1.3-2.1c-0.8,0-1.5,0.8-1.5,2.2C295.9,209.3,295.9,210.5,295.8,211.6z"/>
	<path class="st2" d="M209.7,215.4c-2.5-0.6-4-0.2-4.8,1.2c-0.8,1.4-0.7,3.2,0.2,4.6c1,1.1,2.6,1.5,4,0.9c0.1-0.8,0.1-1.6,0-2.4
		c-0.5-0.4-1.1,0-1.6-0.3c-0.2-0.2-0.2-0.5,0-0.8c0.9-0.1,1.8-0.1,2.6,0c0.3,1.4,0.3,2.9,0.1,4.4c-1.6,0.7-3.4,0.7-5,0
		c-1.3-0.7-2.1-2-2.1-3.4c-0.4-2.6,1.4-5,4-5.4l0,0c0.7-0.1,1.5,0,2.2,0.2C210,214.5,210.1,214.6,209.7,215.4z"/>
	<path class="st2" d="M207.8,207.4c1.3,1.1,1.1,2.7,1.6,4.1c-0.3,0.2-0.7,0.2-1.1,0.1c-0.3-0.7-0.6-1.5-0.7-2.3
		c-0.4-1.3-1.1-1.7-2.6-1.3c-0.3,1.2,0.1,2.4-0.2,3.5c-0.3,0.2-0.7,0.2-1.1,0.1v-8.5c1.4-0.4,2.8-0.3,4.1,0.1
		c1.1,0.5,1.6,1.8,1.1,2.9c-0.1,0.2-0.2,0.4-0.4,0.6C208.4,206.9,208.1,207.2,207.8,207.4z M205,206.9c1.1,0.1,2.2,0.1,2.8-0.9
		c0.3-0.5,0.2-1.2-0.3-1.6c-0.7-0.6-1.7-0.8-2.6-0.4C204.8,204.9,204.8,205.9,205,206.9L205,206.9z"/>
	<path class="st2" d="M235.8,205.8v-3.1c0.3-0.2,0.7-0.3,1-0.1v9c-0.5,0.2-0.9,0.2-0.9-0.5c-0.4,0-0.6,0.3-0.8,0.5
		c-1.1,0.7-2.5,0.3-3.2-0.8c-0.1-0.1-0.2-0.3-0.2-0.5c-0.3-0.8-0.4-1.6-0.3-2.4C231.5,205.8,233.4,204.1,235.8,205.8z M235.6,208.4
		c0-0.3,0-0.5,0-0.8c-0.1-0.9-0.8-1.5-1.6-1.6c-0.8,0-1.5,0.5-1.8,1.3s-0.3,1.7,0,2.5c0.3,0.9,1.3,1.4,2.2,1c0.5-0.2,0.9-0.6,1-1
		C235.6,209.3,235.6,208.9,235.6,208.4L235.6,208.4z"/>
	<path class="st2" d="M300.8,223c-0.6,0.3-1,0.1-1-0.5h-0.2c-0.9,0.9-2.2,1.1-3.3,0.4c-1.1-0.7-1.6-2-1.4-3.3
		c0.1-2.1,1.5-3.4,3.3-3.1c0.5,0.1,1,0.4,1.4,0.6c0.1-1.1-0.1-2.2,0.1-3.2c0.3-0.2,0.6-0.2,0.9-0.1C301,216.9,301,220,300.8,223z
		 M299.6,219.7c0-0.2,0-0.4,0-0.6c-0.1-0.8-0.7-1.5-1.5-1.7c-0.8,0-1.6,0.5-1.8,1.2c-0.4,0.8-0.4,1.8,0,2.6c0.4,0.9,1.4,1.3,2.2,0.9
		c0.4-0.2,0.7-0.5,0.9-0.9C299.6,220.8,299.7,220.2,299.6,219.7L299.6,219.7z"/>
	<path class="st2" d="M223.5,205.6v-3c0.3-0.2,0.7-0.3,1-0.1c0.3,0.2,0.4,6.7,0.2,9.1c-0.5,0.2-0.9,0.2-1.1-0.5
		c-0.3,0-0.5,0.3-0.7,0.4c-1.2,0.8-2.8,0.4-3.6-0.8c-0.1-0.2-0.2-0.4-0.3-0.6c-0.4-1-0.4-2.1,0-3.1c0.4-1.4,1.9-2.2,3.4-1.8
		c0.3,0.1,0.5,0.2,0.7,0.3C223.1,205.6,223.3,205.6,223.5,205.6z M223.5,208.5c0-0.3,0-0.5,0-0.8c0-0.8-0.7-1.5-1.5-1.7
		c-0.8,0-1.6,0.5-1.9,1.3c-0.3,0.8-0.3,1.7,0,2.5c0.3,0.7,0.9,1.1,1.7,1.1c0.7,0,1.3-0.5,1.5-1.2
		C223.5,209.3,223.5,208.9,223.5,208.5L223.5,208.5z"/>
	<path class="st2" d="M252.7,217.3c0-0.7,0-1.2,0-1.7s0-1,0.1-1.5c0.3-0.2,0.7-0.2,1,0v9c-0.6,0.3-0.9,0.2-1-0.5c-0.1,0-0.2,0-0.2,0
		c-0.8,0.9-2.2,1-3.2,0.4c-1.1-0.7-1.7-2-1.5-3.3c-0.1-1.4,0.8-2.7,2.2-3.1C251,216.4,252,216.6,252.7,217.3z M252.7,220
		c0-0.3,0-0.5,0-0.8c0-0.9-0.8-1.7-1.8-1.7c-0.8,0-1.4,0.5-1.6,1.2c-0.4,0.9-0.3,1.9,0.1,2.8c0.4,0.8,1.4,1.1,2.2,0.7l0,0
		c0.2-0.1,0.4-0.2,0.5-0.4C252.6,221.3,252.8,220.6,252.7,220L252.7,220z"/>
	<path class="st2" d="M278.7,219.7c-0.3,1.2,0,2.2-0.2,3.3c-0.3,0.2-0.7,0.2-1,0.1v-8.6c1.1-0.3,2.3-0.3,3.4-0.1
		c1.1,0.2,2,1.1,2.1,2.2c0.1,1.2-0.6,2.3-1.7,2.8C280.4,219.6,279.5,219.7,278.7,219.7z M278.6,218.5c0.9,0.4,2,0.1,2.7-0.6
		c0.5-0.6,0.5-1.4,0-2c-0.7-0.7-1.8-0.8-2.7-0.4C278.5,216.5,278.5,217.5,278.6,218.5L278.6,218.5z"/>
	<path class="st2" d="M256.6,203.9c-1.7-0.3-3.4-0.6-4.5,1.1c-0.9,1.3-1,3-0.1,4.4c1.1,1.8,2.8,1.6,4.5,1.3c0.3,0.3,0.3,0.5,0.3,0.9
		c-1.4,0.6-3,0.5-4.4-0.1c-1.3-0.7-2.1-2-2.2-3.4c-0.5-2.5,1.2-4.9,3.7-5.4c0.6-0.1,1.2-0.1,1.7,0c0.3,0,0.5,0.1,0.8,0.2
		C257,203.1,257,203.4,256.6,203.9z"/>
	<path class="st2" d="M278.3,205.1c1.7,0,3,1.3,3.1,2.9c0,0.2,0,0.3,0,0.5c0.1,1.7-1.1,3.3-2.9,3.4c-0.1,0-0.2,0-0.2,0
		c-1.7,0-3.1-1.4-3.1-3.1c0-0.1,0-0.2,0-0.3c-0.1-1.8,1.2-3.3,2.9-3.4C278.2,205.1,278.2,205,278.3,205.1z M276.3,208.3
		c0,0.5,0.1,1.1,0.3,1.6c0.3,0.6,0.9,1.1,1.6,1.1c0.7,0,1.3-0.4,1.5-1c0.5-1,0.5-2.2-0.1-3.1c-0.4-0.7-1.4-1-2.1-0.6
		C276.8,206.6,276.3,207.4,276.3,208.3L276.3,208.3z"/>
	<path class="st2" d="M261.9,205.1c1.7-0.1,3.1,1.2,3.1,2.9c0,0.1,0,0.3,0,0.4c0.2,1.8-1.1,3.3-2.9,3.5c-0.1,0-0.1,0-0.2,0
		c-1.7,0-3.1-1.3-3.2-3c0-0.1,0-0.2,0-0.4c-0.1-1.7,1.2-3.3,2.9-3.4C261.7,205.1,261.8,205.1,261.9,205.1z M259.9,208.3
		c0,0.6,0.1,1.1,0.4,1.6c0.3,0.6,0.9,1,1.6,1c0.7,0,1.3-0.4,1.5-1c0.6-1,0.5-2.2-0.1-3.1c-0.4-0.8-1.4-1.1-2.2-0.6l0,0
		C260.3,206.6,259.9,207.4,259.9,208.3L259.9,208.3z"/>
	<path class="st2" d="M293.9,220c0.1,1.7-1.2,3.3-2.9,3.4c-0.1,0-0.2,0-0.3,0c-1.7,0-3.1-1.4-3.1-3c0-0.1,0-0.2,0-0.3
		c-0.1-1.7,1.1-3.3,2.9-3.4c0.1,0,0.2,0,0.3,0c1.7,0.1,3.1,1.5,3,3.2C293.9,219.8,293.9,219.9,293.9,220z M292.7,220
		c0-1.4-0.8-2.5-1.9-2.5c-1.1,0-2,1.1-2,2.5c-0.1,1.2,0.7,2.2,1.9,2.4C291.9,222.3,292.8,221.2,292.7,220z"/>
	<path class="st2" d="M334.1,205.1c1.7,0,3,1.3,3.1,2.9c0,0.2,0,0.3,0,0.5c0.1,1.7-1.1,3.3-2.9,3.4c-0.1,0-0.2,0-0.3,0
		c-1.7,0-3.1-1.4-3.1-3.1c0-0.1,0-0.2,0-0.3c-0.1-1.8,1.2-3.3,3-3.4C333.9,205.1,334,205,334.1,205.1z M336,208.5
		c0-0.5-0.1-1.1-0.4-1.6c-0.3-0.6-0.9-1-1.5-0.9c-0.7,0-1.3,0.3-1.6,0.9c-0.3,0.5-0.4,1-0.4,1.6c-0.1,1.2,0.7,2.3,1.8,2.5
		C335.2,210.9,336.1,209.8,336,208.5L336,208.5z"/>
	<path class="st2" d="M303.2,216.7c0.3-0.2,0.7-0.2,1,0c0.1,1,0.1,2.1,0.1,3.1c0,0.4,0,0.9,0.1,1.3c0.1,0.6,0.4,1.1,1,1.2
		c0.6,0.1,1.2-0.3,1.4-0.8c0.2-0.4,0.3-0.8,0.2-1.3v-3.5c0.3-0.2,0.7-0.2,1-0.1v6.4c-0.5,0.2-0.8,0.2-0.9-0.5
		c-0.3,0-0.5,0.3-0.7,0.4c-1.4,0.9-2.8,0.2-3.1-1.5C303,219.8,303,218.3,303.2,216.7z"/>
	<path class="st2" d="M233.7,216.5c1.7,0,3.1,1.3,3.1,3c0,0.1,0,0.2,0,0.3c0.2,1.8-1.1,3.3-2.9,3.5c-0.1,0-0.2,0-0.3,0
		c-1.7,0-3.1-1.4-3.1-3.1c0-0.1,0-0.2,0-0.3c-0.1-1.8,1.2-3.3,2.9-3.4C233.6,216.5,233.7,216.5,233.7,216.5z M235.6,220
		c0-1.4-0.8-2.5-1.9-2.5s-1.9,1-1.9,2.4c0,1.4,0.8,2.6,1.9,2.6C234.9,222.3,235.8,221.2,235.6,220L235.6,220z"/>
	<path class="st2" d="M327.4,216.5c1.7,0,3.1,1.4,3.1,3.1c0,0.1,0,0.2,0,0.3c0.2,1.7-1.1,3.3-2.9,3.5c-0.1,0-0.2,0-0.3,0
		c-1.7,0-3-1.4-3-3.1c0-0.1,0-0.1,0-0.2c-0.2-1.8,1.1-3.3,2.8-3.5C327.2,216.5,327.3,216.5,327.4,216.5z M329.2,220
		c0-1.4-0.8-2.5-1.9-2.5c-1.1,0-1.9,1-1.9,2.5s0.9,2.5,1.9,2.5C328.5,222.3,329.3,221.2,329.2,220z"/>
	<path class="st2" d="M268.5,217.8c-0.3-0.4-0.3-0.7,0.1-0.9c0.9-0.5,2-0.5,3-0.1c0.6,0.3,0.9,0.9,1,1.5c0.2,1.5,0,3.1,0.2,4.6
		c-0.4,0.3-1,0.2-1.3-0.2l0,0c-0.3,0.2-0.7,0.3-1,0.5c-1,0.4-2.1-0.1-2.5-1c-0.5-1-0.1-2.2,0.9-2.8c0.8-0.4,1.6-0.6,2.5-0.6
		C271.7,217.6,270.9,217.3,268.5,217.8z M271.5,220c-0.5-0.1-1.1-0.1-1.6,0.1c-0.6,0.1-1,0.7-0.9,1.3c0,0.5,0.3,0.9,0.8,1
		c0.6,0.2,1.2-0.1,1.5-0.6C271.6,221.3,271.7,220.6,271.5,220L271.5,220z"/>
	<path class="st2" d="M318.1,205.2c0.2-0.2,0.5-0.2,0.8-0.1c0.3,0.2,0.1,0.5,0.3,0.7c0.1,0,0.2,0,0.3-0.1c0.3-0.3,0.6-0.5,1-0.6
		c1.1-0.4,2.4,0.1,2.8,1.3c0.1,0.1,0.1,0.3,0.1,0.5c0.2,1.5,0.2,3.1,0.1,4.6c-0.3,0.2-0.7,0.2-1,0.1c-0.2-0.6-0.2-1.2-0.2-1.8
		c0-0.7,0-1.3,0-2.1c-0.1-1.1-0.5-1.6-1.4-1.6c-0.9,0-1.6,0.7-1.7,1.6v0.1c0,1,0,2,0,3c0,0.2,0,0.5-0.1,0.7c-0.3,0.3-0.6,0.1-1,0.1
		V205.2z"/>
	<path class="st2" d="M243.6,223c-0.3,0.2-0.6,0.2-0.9,0.1c-0.4-0.4-0.2-0.8-0.2-1.3c0-0.8,0-1.6,0-2.5c0-1.2-0.5-1.7-1.4-1.7
		c-0.9,0-1.7,0.8-1.7,1.7v0.1c0,0.9,0,1.8,0,2.8c0,0.3,0,0.6-0.1,0.8c-0.3,0.2-0.6,0.1-1,0c-0.2-2.1,0-4.2-0.1-6.3
		c0.2-0.2,0.6-0.3,0.9-0.2c0.3,0.2,0.1,0.6,0.4,0.8c0.4-0.3,0.8-0.5,1.2-0.7c1.1-0.5,2.4,0.1,2.9,1.2c0,0.1,0.1,0.2,0.1,0.4
		c0.1,0.5,0.2,0.9,0.1,1.4C243.7,220.8,243.8,221.9,243.6,223z"/>
	<path class="st2" d="M332.8,223c-0.3,0.2-0.7,0.2-1,0v-6.3c0.2-0.2,0.5-0.2,0.7-0.1c0.3,0.2,0.1,0.5,0.3,0.7c0.1,0.1,0.2,0,0.3-0.1
		c0.3-0.3,0.7-0.5,1.1-0.6c1.1-0.4,2.4,0.3,2.7,1.4c0,0.1,0,0.1,0,0.2c0.1,0.6,0.2,1.2,0.2,1.8c0,0.9,0,1.8,0,2.7
		c0,0.1,0,0.2-0.1,0.3c-0.2,0.2-0.6,0.2-0.8,0.1c-0.2,0-0.3-0.2-0.3-0.3c0-0.8,0-1.6,0-2.5c0-0.4,0-0.8,0-1.1
		c-0.1-1.1-0.5-1.6-1.5-1.6c-0.9,0-1.6,0.8-1.6,1.7c0,0.9,0,1.8,0,2.7C333,222.3,332.9,222.7,332.8,223z"/>
	<path class="st2" d="M268.6,211.5c-0.3,0.1-0.6,0.2-0.9,0.1c-0.3-0.3-0.4-4.2-0.2-6.4l0.3-0.1c0.2-0.1,0.4,0,0.6,0.1
		c0.2,0.2,0.1,0.5,0.3,0.8c0.2-0.2,0.5-0.4,0.8-0.5c1.1-0.7,2.5-0.4,3.2,0.6c0.2,0.3,0.3,0.7,0.4,1.1c0,0.4,0,0.9,0,1.3
		c0,1,0,2-0.1,3c-0.3,0.2-0.7,0.2-1,0.1c-0.1-0.8-0.2-1.7-0.1-2.5c0-0.5,0-1,0-1.4c-0.1-1-0.5-1.5-1.4-1.5c-0.8,0-1.5,0.5-1.7,1.3
		c0,0.4,0,0.8,0,1.1L268.6,211.5z"/>
	<path class="st2" d="M217,220.2h-4.1c-0.1,1.8,0.8,2.3,3.6,1.9c0.3,0.4,0.3,0.7-0.4,0.9c-1.5,0.6-3.1,0.1-4.1-1.1
		c-0.8-1.6-0.6-3.5,0.6-4.8c1-1,2.6-1,3.6,0c0.3,0.3,0.5,0.6,0.6,1C217.2,218.8,217.2,219.5,217,220.2z M215.9,219.4
		c-0.1-1.3-0.6-1.9-1.4-1.9s-1.5,0.7-1.6,1.9C213.8,219.4,214.9,219.4,215.9,219.4L215.9,219.4z"/>
	<path class="st2" d="M216.6,208.7h-4.1c0,1.8,0.8,2.3,3.6,2c0.3,0.5,0.3,0.8-0.4,0.9c-1.4,0.5-3.1,0.1-4-1.1
		c-0.8-1.6-0.6-3.5,0.6-4.8c1-1,2.6-1,3.6-0.1c0.3,0.3,0.5,0.6,0.7,1C216.8,207.3,216.8,208.1,216.6,208.7z M212.4,207.9
		c1,0,2,0,3.1-0.1c-0.1-1.3-0.6-1.8-1.4-1.9C213.3,205.8,212.6,206.6,212.4,207.9L212.4,207.9z"/>
	<path class="st2" d="M311.3,208.9c0.1,1.8,0.7,2.1,3.7,1.9c0.2,0.4,0.2,0.7-0.4,0.9c-1.6,0.5-3.5,0-4.1-1.2
		c-0.8-1.6-0.5-3.5,0.7-4.8c1-1,2.6-0.9,3.6,0.1c0.2,0.3,0.4,0.6,0.5,0.9c0.3,0.6,0.4,1.3,0.2,2C314.1,209,312.7,208.7,311.3,208.9z
		 M311.3,207.9c1,0.1,2,0.1,3.1,0c-0.1-1.3-0.6-1.9-1.4-1.9S311.5,206.6,311.3,207.9L311.3,207.9z"/>
	<path class="st2" d="M240.3,208.9c0.2,1.9,0.9,2.2,3.7,1.9c0.3,0.4,0.3,0.7-0.3,0.9c-1.5,0.6-3.2,0.1-4.1-1.2
		c-0.8-1.6-0.5-3.5,0.6-4.8c1-1,2.6-1,3.5,0c0.3,0.3,0.5,0.6,0.6,1c0.3,0.6,0.4,1.3,0.2,1.9C243.1,208.9,241.7,208.7,240.3,208.9z
		 M240.3,208c1,0,2,0,3.1-0.1c-0.1-1.3-0.6-1.8-1.4-1.9S240.5,206.6,240.3,208L240.3,208z"/>
	<path class="st2" d="M256.5,220.4c0.1,1.8,0.7,2.1,3.7,1.9c0.3,0.4,0.2,0.7-0.3,0.9c-1.5,0.6-3.2,0.1-4.1-1.2
		c-0.8-1.6-0.5-3.6,0.8-4.9c1-0.9,2.6-0.8,3.5,0.2c0.2,0.2,0.4,0.5,0.5,0.8c0.3,0.6,0.4,1.3,0.1,2c-0.7,0.1-1.4,0.1-2.1,0.1
		C257.9,220.2,257.2,220.3,256.5,220.4z M259.5,219.4c0-1.3-0.5-1.9-1.4-1.9s-1.5,0.7-1.6,1.9C257.5,219.5,258.5,219.5,259.5,219.4
		L259.5,219.4z"/>
	<path class="st2" d="M326.5,206.3c-0.3-0.4-0.6-0.2-0.9-0.4c-0.3-0.2,0-0.6,0.8-0.9c0.2-0.4,0-0.9,0.2-1.3c0.3-0.3,0.6-0.2,0.9-0.3
		c0.4,0.5,0.1,1.1,0.4,1.6c0.4,0.3,0.9,0,1.3,0.2c0.1,0.6,0.1,0.6-1.4,1c-0.1,1.3-0.1,2.6,0,3.9c0.1,0.8,0.7,0.8,1.3,0.8
		c0.3,0.6,0.1,0.9-0.6,1c-0.9,0.2-1.8-0.4-2-1.3c0-0.2,0-0.3,0-0.5C326.5,208.8,326.5,207.5,326.5,206.3z"/>
	<path class="st2" d="M223.9,217.8c-0.3-0.4-0.7-0.2-0.9-0.4c-0.3-0.8,0.4-0.7,0.8-0.8c0.3-0.4,0-0.9,0.2-1.3
		c0.2-0.2,0.6-0.3,0.9-0.3c0.4,0.4,0,1.1,0.4,1.6c0.4,0.3,0.9,0,1.3,0.2c0.1,0.7,0.1,0.7-1.4,1c-0.1,1.3-0.1,2.7,0,4
		c0.1,0.8,0.8,0.6,1.3,0.7c0.3,0.6,0.1,0.9-0.5,1c-0.9,0.2-1.8-0.4-2-1.3c0-0.2,0-0.3,0-0.5C223.9,220.3,223.9,219,223.9,217.8z"/>
	<path class="st2" d="M288.2,205.3c0,0.1,0,0.3,0,0.4c0,0.2-0.1,0.3-0.1,0.4c-2.5-0.4-4,0.4-3.4,3.2c0.3,1.3,1.2,1.6,3.3,1.3
		c0.3,0.8,0.3,0.8-0.5,1c-1.3,0.4-2.6,0-3.5-1c-0.8-1.2-0.9-2.9-0.2-4.2c0.7-1.2,2.1-1.8,3.4-1.5
		C287.6,205.1,287.9,205.2,288.2,205.3z"/>
	<path class="st2" d="M314.1,217.7c-2.5-0.2-3.5,0.5-3.5,2.3s1,2.5,3.5,2.3c0.3,0.6,0.1,0.8-0.5,1c-1.3,0.4-2.7,0-3.6-1
		c-0.8-1.3-0.8-3,0-4.3c0.9-1.1,2.3-1.6,3.7-1.2C314.3,216.8,314.3,216.8,314.1,217.7z"/>
	<path class="st2" d="M319.9,222.3c0.4,0.7-0.1,0.9-0.6,1c-1.3,0.4-2.7,0-3.5-1.1c-0.8-1.3-0.9-2.9-0.1-4.2c0.7-1.2,2.1-1.7,3.5-1.4
		c0.3,0,0.6,0.1,0.9,0.3c0.1,0.3,0.1,0.6-0.2,0.8c-2.3-0.4-3.8,0.3-3.4,3C316.7,222.1,317.5,222.4,319.9,222.3z"/>
	<path class="st2" d="M221.7,217.7c-0.4-0.1-0.7-0.2-1.1-0.2c-0.4-0.1-0.9,0.2-1,0.6c-0.1,0.4,0.1,0.8,0.5,1
		c0.4,0.2,0.9,0.4,1.3,0.7c0.9,0.5,1.2,1.7,0.7,2.6c-0.3,0.5-0.8,0.9-1.4,0.9c-0.8,0.2-1.6,0.1-2.3-0.3c-0.2-0.3-0.1-0.7,0.2-0.9
		c0.1,0,0.2,0,0.3,0c0.4,0.1,0.7,0.2,1.1,0.3c0.5,0.1,1-0.2,1.1-0.7c0.1-0.5-0.1-0.9-0.6-1.1c-0.3-0.2-0.6-0.3-0.9-0.4
		c-1-0.4-1.4-1.4-1.1-2.4c0-0.1,0.1-0.2,0.1-0.3c0.7-0.9,2-1.3,3-0.7C222.1,217,222,217.3,221.7,217.7z"/>
	<path class="st2" d="M265.1,214.1c0.3-0.2,0.7-0.2,1,0v8.8c-0.1,0.1-0.3,0.2-0.4,0.2c-0.2,0-0.4,0-0.6-0.1V214.1z"/>
	<path class="st2" d="M285.2,217.4c0.9-0.8,0.9-0.8,1.9-0.8c0.2,0.3,0.2,0.6,0.1,0.9c-0.1,0.1-0.2,0.1-0.3,0.1c-1,0.1-1.8,1-1.7,2.1
		v0.1c0,1,0.1,2.1-0.1,3.1c-0.4,0.3-0.7,0.2-1.1,0.1c-0.2-2.1,0-4.2-0.1-6.3c0.3-0.3,0.5-0.3,0.8-0.3
		C285,216.4,284.9,217.2,285.2,217.4z"/>
	<path class="st2" d="M306.3,205.2c0.4-0.2,0.8-0.2,1.1,0v6.4c-0.1,0-0.3,0.1-0.4,0.1c-0.2,0-0.3,0-0.7,0
		C306.2,209.5,306.2,207.3,306.3,205.2z"/>
	<path class="st2" d="M291.6,211.5c-0.3,0.1-0.7,0.1-1,0v-6.2c0.3-0.2,0.7-0.2,1-0.1V211.5z"/>
	<path class="st2" d="M322.7,223c-0.3,0.2-0.7,0.2-1.1,0.1c-0.2-2.1,0-4.2-0.1-6.3c0.3-0.3,0.8-0.3,1.2-0.1
		C322.8,218.8,322.7,220.9,322.7,223z"/>
	<path class="st2" d="M227.9,216.7c0.3-0.2,0.7-0.2,1-0.1c0.2,2.1,0.2,4.3,0,6.4c-0.3,0.1-0.7,0.1-1,0
		C227.9,221,227.9,218.8,227.9,216.7z"/>
	<path class="st2" d="M225.2,201.7c0.8-1.1,1.5-2.3,2.1-3.6c0.6-0.8,1.1-1.6,1.5-2.5c0.1-0.4,0.6-0.5,0.9-0.5
		c0.3,0.1,0.2,0.4,0.1,0.5c-1.2,1.3-1.6,3-2.6,4.4c-0.3,0.6-0.7,1.1-1.2,1.6C225.8,201.8,225.5,201.8,225.2,201.7z"/>
	<path class="st2" d="M326.7,216c0.8-1.9,1-2,2.4-1.7C328.2,214.9,328,216,326.7,216z"/>
	<path class="st2" d="M235.3,214.2c-1,1.6-1.3,1.8-2.1,1.7C233.8,214.2,234,214,235.3,214.2z"/>
	<path class="st2" d="M229.3,214.9c0,0.5-0.2,0.8-0.7,0.8c-0.4,0.1-0.7-0.2-0.8-0.5v-0.1c-0.1-0.4,0.2-0.7,0.5-0.8l0,0
		c0.1,0,0.1,0,0.2,0C228.9,214.3,229.3,214.6,229.3,214.9L229.3,214.9z"/>
	<path class="st2" d="M307.7,203.5c0,0.5-0.3,0.8-0.7,0.8s-0.7-0.3-0.7-0.7s0.3-0.7,0.7-0.7l0,0C307.3,202.8,307.7,203,307.7,203.5
		C307.7,203.4,307.7,203.4,307.7,203.5z"/>
	<path class="st2" d="M323,215c0,0.4-0.3,0.7-0.7,0.7l0,0c-0.4,0-0.7-0.2-0.7-0.6V215c-0.1-0.4,0.2-0.7,0.6-0.8h0.1
		C322.7,214.3,322.9,214.6,323,215z"/>
	<path class="st2" d="M291.3,202.8c0.4,0,0.7,0.2,0.7,0.6v0.1c0,0.4-0.3,0.7-0.7,0.8c-0.4,0-0.7-0.3-0.8-0.7v-0.1
		C290.6,203.1,290.9,202.8,291.3,202.8z"/>
	<path class="st2" d="M214,181.4c1.3-0.8,2-0.9,3.1-0.6C216.1,181.1,215,181.3,214,181.4z"/>
	<path class="st2" d="M223.5,154.1c-0.3,0.8-1.1,1.1-1.9,0.9c-0.2-0.1-0.4-0.2-0.5-0.3c-0.3-0.4-0.1-0.7,0.3-0.8
		C222.1,153.7,222.8,153.8,223.5,154.1z"/>
</g>
</svg>
