<?xml version="1.0" encoding="utf-8"?>
<!-- Generator: Adobe Illustrator 21.1.0, SVG Export Plug-In . SVG Version: 6.00 Build 0)  -->
<svg version="1.1" id="Capa_1" xmlns="http://www.w3.org/2000/svg" xmlns:xlink="http://www.w3.org/1999/xlink" x="0px" y="0px"
	 viewBox="0 0 487 129.6" style="enable-background:new 0 0 487 129.6;" xml:space="preserve">
<style type="text/css">
	.st0{fill:url(#SVGID_1_);}
	.st1{opacity:0.9;}
	.st2{fill:#FFFFFF;}
</style>
<title>prueba</title>
<linearGradient id="SVGID_1_" gradientUnits="userSpaceOnUse" x1="-139" y1="64.78" x2="594.0062" y2="64.78">
	<stop  offset="0" style="stop-color:#FC7323"/>
	<stop  offset="1" style="stop-color:#FFEB3B"/>
</linearGradient>
<polygon class="st0" points="410,129.6 0,129.6 0,0 487,0 "/>
<g class="st1">
	<path class="st2" d="M149,59.7c-0.7,0-0.2-0.7-0.6-0.9c-0.6,0.1-1.1,0.4-1.6,0.7c0.5,0.3,0.8,0.1,1.2,0.3c0.1,0.3-0.1,0.5-0.4,0.6
		l-4.5,2.8c-0.3,0.3-0.8,0.4-1.3,0.2c0.2-0.9,0.8-1.6,1.6-2.1c0.8-0.5,1.6-0.9,2.7-1.5c-2.8-0.4-5.5-1.1-8-2.3
		c0,1.8,0.6,3.7-0.6,5.3c-0.2-1.6,0.2-3.2-0.6-4.9c-0.6,1-0.9,2.2-2.4,2.3c1-1,1.3-2.3,2-3.6c-1.9-1.2-3.6-2.5-5.3-3.9
		c-0.1,10-0.1,19.9-0.1,29.8c-2.1,0.1-4.2,0.1-6.4,0c-0.3-0.4-0.5-1-0.3-1.5V39.2c-0.1-2.8,0-5.6,0.5-8.4c0.5-2.6,1.4-5,2.7-7.3
		c0.3-0.6,0.8-1,0.7-1.9c-0.1-0.5,0.4-0.7,0.8-0.7c0.1,0.5-0.4,0.7-0.2,1.2c2.4,0.3,4.8,0.9,7.1,1.9c2.2,0.9,4.2,2.3,6.4,3.4
		c-1-1.9-8.1-6-12.8-6.5c1.1-1.5,2.3-2.9,3.7-4.2c-0.8-0.3-1.8-0.5-2.7-0.5h-3.2c-0.5,0-0.9-0.1-1-0.6s0.3-0.8,0.9-0.9
		c1.4-0.4,2.9-0.3,4.3,0.1c1,0.4,2.1,0.6,3.2,0.7c1-0.1,1.9-1,2.9-1.5c11.9-6.3,26.7-1.8,33,10.1c5.8,10.9,2.5,24.5-7.7,31.6
		c-0.4,0.2-0.7,0.3-0.8,0.8c1.2,0,2.3,0.3,3.4,0.9c0,0.9-1,1.3-1.2,2.2c0.6-0.1,1.1-0.5,1.4-0.9c0.4-0.5,1.1-0.5,1.6-0.2
		c0,0,0,0,0,0l0,0c0.8,0.6,1.5,1.4,2,2.2c0.3,0.4,0.2,1.1-0.2,1.4c-0.7,0.7-1.5,1.3-2.4,1.9c-0.4,0.2-0.8,0.2-0.9,0.9
		c1.9-0.3,2.9-1.6,4.5-2.3c0.7,1.4,1.2,2.9,1.5,4.4c0.1,0.4-0.1,0.8-0.5,0.9l-1.2,0.7c0.1,0.1,0.1,0.2,0.2,0.2
		c1.7-0.1,1.9,0,1.7,1.6c-0.1,2.5-1,5-2.7,6.9c-0.2,0.4-0.6,0.7-1,0.8c-1.2-1.4-2.6-2.6-4-3.8c-1.5-1.2-3.1-2.1-4.5-3.2
		c-0.5,0.3-0.4,0.6-0.5,0.9c-0.5,2.2-1.2,4.4-1.9,6.6c-0.1,0.3-0.2,0.6-0.2,0.9c0,0.5-0.2,0.7-0.8,0.7c-0.5-0.8-0.7-1.7-0.5-2.7
		c0.5-2,1.1-4,1.9-5.9c0.4-0.8,0.8-1.7,0.2-2.5c0.2-0.6,1-0.2,1-1c-0.3-0.2-0.7-0.2-1-0.1c-0.8,0.1-1.6-0.4-1.7-1.2l0,0
		c-0.2-1.3-1.4-2.2-2.7-2.2c-0.5-0.1-1-0.3-1.5-0.5C150.4,63.4,149.1,61.7,149,59.7c0.6,0.1,1.2,0,1.7-0.2l-1-2.1
		C149.3,58.1,149,58.9,149,59.7z M157.2,58.2c-0.4,0.8-0.9,1.5-1.5,2.1c-0.9-1.3-0.9-1.3-1.6-1c0,0.5,0.4,0.8,0.2,1.3
		c-2-1.3-2-1.3-3.2-0.7c1.5,1.5,3.4,2,5.1,3.1c-0.4-1.4,0.7-1.8,1.2-2.7s1.2-1.6,1.7-2.7C158.5,57.9,157.9,58,157.2,58.2
		c1.4-2.3,2.6-4.7,3.6-7.3c0.3-0.8,0.5-1.8,0.4-2.7c-0.2-1.6-0.7-3.2-1.3-4.7c-0.1-0.4-0.3-0.8-0.7-1c-0.2,0-0.4,0.1-0.5,0.3
		c-1.6,1.9-3.1,3.8-4.5,5.9c-1.5,2.4-1.6,5.5-0.2,8c1.3,2.4,0.7,2.3,3.2,1.5L157.2,58.2z M136,38.8c1.7-1.3,4-1.1,5.4,0.5
		c0.8,0.7,1.8,1.1,2.8,1.3c2.2,0.7,4.7,0.6,6.8-0.5c1.1-0.6,1.9-1.7,2-3c0.2-2.6-1.4-5-3.9-5.7c-1.4-0.3-2.8-0.3-4.2,0.1
		c-1.4,0.1-2.6,0.7-3.7,1.5c-0.6,0.5-1.3,1-1.9,1.5C138,35.6,136.8,37.1,136,38.8z M148.4,52.6c1.4,0.5,2.9-0.1,3.6-1.4
		c0.7-1.1,1.2-2.3,1.6-3.6c0.2-0.5,0.2-1,0.1-1.5c0-0.9-0.6-1.8-1.5-2c-0.8-0.2-1.6,0.1-2,0.8c-1,1-1.6,2.5-1.5,3.9
		C148.9,50.1,148.7,51.4,148.4,52.6L148.4,52.6z M154.6,46.5c1.6-1.3,2.9-2.8,3.9-4.6c0.2-0.3,0.1-0.8-0.2-1
		c-1.1-1.2-2.3-2.3-3.6-3.2c-0.7-0.5-1-0.3-1.3,0.3c-0.7,1.4-0.8,3-0.2,4.4C153.9,43.7,154.4,45.1,154.6,46.5L154.6,46.5z
		 M147.6,52.3c0.8-0.9,0.9-1.4,0.2-2.2c-0.8-1.2-1.6-2.3-2.4-3.3c-1.2-1.5-2.7-2.8-4.4-3.7c-0.5-0.2-0.9-0.6-1.6-0.2
		c1.3,1.7,2.2,3.6,3.4,5.3C143.9,50,145.6,51.4,147.6,52.3L147.6,52.3z M138.6,44.2c-1,2-1.6,8-0.9,10c-1.2,1.3-1,2.4,0.2,2.8
		c0.1-0.1,0.1-0.3,0-0.5c-0.3-1.3,0.1-2.6,1-3.5c0.5-0.5,0.7-1.2,0.5-1.8c-0.1-0.8-0.2-1.6-0.2-2.4C139,47.1,138.8,45.6,138.6,44.2
		L138.6,44.2z M146.2,21.6c-0.1-0.4-0.1-0.5-0.2-0.5c-3.1-2.1-6.5-4-10-5.4c-0.8-0.4-1.9-0.1-2.3,0.7
		C138.1,17.4,142,19.5,146.2,21.6L146.2,21.6z M154,59c-0.9-1.7-2-3.2-2.2-5.2c-1,0.5-1.5,1.2-1.2,2.2c0.4,1.2,1.2,2.2,2.2,3
		C153.1,59.3,153.6,59.3,154,59C154,59.1,154,59,154,59z M143.2,43.8c1.8,1.8,3.4,3.7,4.9,5.7c0.4-0.2,0.4-0.5,0.2-0.6
		c-0.8-1.7-1.8-3.4-3-4.9C144.8,43.4,144.1,43.4,143.2,43.8L143.2,43.8z M148.4,24.3c-1.2,0.8-4.3,5.8-4.2,6.7
		C145.1,30.6,148,26,148.4,24.3L148.4,24.3z M140.1,50.8c0.5-0.9,1-1.8,1.5-2.8c0.2-0.5,0-1.2-0.5-1.5
		C139.9,48,139.6,48.7,140.1,50.8L140.1,50.8z M158.4,65.6l3.4,1c-0.4-0.6-1-1.1-1.6-1.5C159.6,66,158.9,65.3,158.4,65.6L158.4,65.6
		z"/>
	<path class="st2" d="M256.7,64.4c-0.1-2-0.1-3.9,0-5.9c1.5-0.5,22-0.5,23.5,0c0.2,0.3,0.3,0.7,0.2,1V84c0,0.4,0,0.8-0.2,1.2
		c-2.1,0.1-4.2,0-6.5,0v-9.3l-0.2-0.1c-3.1,2.8-6.8,4.8-10.9,5.8c-0.5,1,0,2.2-0.4,3.5H251c-0.4-1.2,0-2.3-0.2-3.5
		c-2.3-0.7-4.5-1.6-6.6-2.8c-1.2,0.6-1.6,1.7-2.8,2.4l-8-8c0.7-1,1.7-1.7,2.5-2.8c-1.1-2-2-4.2-2.6-6.4c-1.2-0.3-2.4,0-3.6-0.3V52.4
		c0.8-0.2,1.7-0.3,2.5-0.2c0.6,0.1,1.2-0.3,1.3-0.9c0.6-2,1.4-4,2.5-5.8c-0.7-1-1.7-1.7-2.3-2.7l8.1-8.1c0.7,0.6,1.3,1.2,1.9,1.8
		c0.4,0.3,0.7,0.6,1.2,0.2c1.9-1.1,4-1.9,6.1-2.5c0.4-1.2,0-2.3,0.4-3.5h11.2c0.5,0.6,0.2,1.3,0.2,2c0,1.3,0,1.3,1.2,1.6
		c1.6,0.5,3.2,1.2,4.7,2c0.4,0.2,0.9,0.4,1.3,0.7l1.9-2.4l8.2,8.1c-0.5,0.9-1.5,1.4-2.1,2.3c1.3,2.1,2.2,4.3,2.8,6.7
		c-0.4,0.5-0.7,0.3-1,0.3h-5c-0.7,0.1-1.3-0.3-1.5-0.9c-3.7-8.8-13.9-12.9-22.6-9.2c-8.8,3.7-12.9,13.9-9.2,22.6
		c3.7,8.8,13.9,12.9,22.6,9.2c3.8-1.6,6.9-4.5,8.7-8.2c0.2-0.4,0.4-0.8,0.4-1.3H265C262.2,64.3,259.5,64.6,256.7,64.4z"/>
	<path class="st2" d="M292.2,78.5v30H286c-0.5-0.5-0.4-1-0.4-1.6V63.6c-0.8-13.5,8.6-24.6,21.3-26.3c13.3-1.7,25.5,7.6,27.3,20.9
		c0.1,1,0.2,2.1,0.2,3.1c0.1,10.8-7,20.4-17.4,23.5c-8.7,2.5-16.5,0.7-23.5-5.3L292.2,78.5z M309.9,78.9c9.6,0,17.4-7.7,17.5-17.4
		s-7.7-17.4-17.4-17.5c-9.6,0-17.4,7.7-17.5,17.3v0.1C292.5,71.1,300.3,78.9,309.9,78.9C309.9,78.9,309.9,78.9,309.9,78.9
		L309.9,78.9z"/>
	<path class="st2" d="M225.8,63.6c-0.5,2.4-1.4,4.6-2.7,6.7c0.8,0.9,1.6,1.7,2.4,2.5l-8.1,8.1c-0.9-0.6-1.5-1.6-2.5-2.3
		c-2,1.2-4.2,2.2-6.5,2.8c-0.5,1.2,0,2.3-0.4,3.5h-11.2c-0.5-1,0-2.2-0.4-3.3c-2.3-0.6-4.6-1.5-6.7-2.7c-1,0.6-1.5,1.6-2.3,2.1
		l-8.1-8.1c0.4-0.6,0.9-1.1,1.5-1.5c0.4-0.3,0.5-0.8,0.2-1.2c-1.1-2-2-4.1-2.5-6.4c-1-0.3-2.2,0-3.2-0.3V52.2c1-0.5,2.1,0,3.2-0.3
		c0.7-2.3,1.6-4.6,2.8-6.7c-0.5-1-1.5-1.5-2.1-2.3l8.2-8.4l1.9,2.4c2.2-1.2,4.6-2.2,7.1-2.9c0.5-1,0-2.2,0.4-3.4h11.3
		c0.4,1,0,2.2,0.4,3.4c1.7,0.5,3.3,1.1,4.9,2c1.9,0.9,1.9,0.9,3.4-0.6c0.3-0.3,0.6-0.6,0.9-0.8l8.1,8.2c-0.5,0.7-1.5,1.4-2.3,2.4
		c1.2,2,2,4.1,2.5,6.4c-0.3,0.2-0.6,0.3-1,0.3H220c-0.8,0.1-1.5-0.4-1.6-1.2c-2-4.8-6.2-8.5-11.2-9.8c-9.3-2.7-19,2.5-21.7,11.8
		s2.5,19,11.8,21.7c8.5,2.5,17.5-1.7,21-9.8c0.2-0.7,0.9-1.1,1.6-1C221.9,63.7,223.8,63.7,225.8,63.6z"/>
	<path class="st2" d="M232.3,99c-0.4,0.2-0.9,0.2-1.3-0.1c-0.1-2.4,0-4.9-0.1-7.2c0.3-0.2,0.6-0.3,1-0.2c0.4,0.2,0,0.7,0.4,0.9
		c1.5-1.2,2.9-1.5,4.3,0.1c0.3-0.1,0.6-0.3,0.8-0.6c1-0.8,2.5-0.7,3.4,0.2c0.3,0.4,0.5,0.8,0.6,1.3c0.2,1.8,0.2,3.6,0,5.4
		c-0.2,0.1-0.4,0.2-0.6,0.2c-0.2,0-0.5,0-0.6-0.2c-0.1-1.2-0.1-2.4-0.1-3.6c0-0.5,0-1-0.1-1.5c-0.2-0.7-0.6-1.2-1.3-1.2
		c-0.7,0-1.4,0.5-1.5,1.3c-0.1,0.6-0.1,1.2-0.1,1.8c0,1,0,2.1-0.1,3.1c-0.3,0.2-0.7,0.2-1,0.1c-0.1-0.1-0.2-0.3-0.2-0.5V95
		c0-1.5-0.6-2.4-1.5-2.4s-1.7,0.9-1.7,2.5C232.4,96.4,232.4,97.8,232.3,99z"/>
	<path class="st2" d="M132.7,103.4c-2.9-0.7-4.6-0.2-5.6,1.4c-0.9,1.7-0.8,3.7,0.2,5.3c1.2,1.3,3,1.7,4.6,1c0.1-0.9,0.1-1.9,0-2.8
		c-0.6-0.5-1.3,0-1.9-0.3c-0.2-0.3-0.2-0.7,0-0.9c1-0.1,2-0.1,3,0c0.3,1.7,0.4,3.4,0.1,5.1c-1.8,0.8-3.9,0.8-5.8,0
		c-1.5-0.8-2.4-2.3-2.4-3.9c-0.5-3,1.6-5.8,4.6-6.2c0,0,0,0,0,0l0,0c0.9-0.1,1.7,0,2.5,0.2C133,102.4,133.1,102.5,132.7,103.4z"/>
	<path class="st2" d="M130.5,94.2c1.5,1.3,1.3,3.1,1.9,4.7c-0.4,0.2-0.8,0.3-1.3,0.1c-0.4-0.8-0.7-1.7-0.8-2.7c-0.5-1.5-1.3-2-3-1.5
		c-0.3,1.4,0.1,2.8-0.2,4c-0.4,0.2-0.8,0.3-1.3,0.1v-9.8c1.6-0.4,3.2-0.4,4.7,0.1c1.3,0.6,1.8,2.1,1.3,3.3c-0.1,0.3-0.3,0.5-0.5,0.7
		C131.1,93.7,130.8,94,130.5,94.2z M127.2,93.6c1.3,0.1,2.5,0.1,3.2-1c0.4-0.6,0.2-1.4-0.4-1.8c-0.8-0.7-2-0.9-3-0.5
		C127,91.4,127,92.5,127.2,93.6L127.2,93.6z"/>
	<path class="st2" d="M162.9,92.3v-3.6c0.3-0.3,0.8-0.3,1.2-0.1V99c-0.6,0.2-1,0.2-1-0.6c-0.5,0-0.7,0.3-0.9,0.6
		c-1.3,0.8-2.9,0.4-3.7-0.9c0,0,0,0,0,0c-0.1-0.2-0.2-0.4-0.2-0.6c-0.3-0.9-0.5-1.8-0.4-2.8C157.9,92.3,160.1,90.3,162.9,92.3z
		 M162.6,95.3v-0.9c-0.1-1-0.9-1.7-1.9-1.8c-0.9,0-1.8,0.6-2.1,1.5c-0.3,0.9-0.3,2,0,2.9c0.4,1,1.6,1.5,2.6,1.1
		c0.5-0.2,0.9-0.6,1.1-1.1C162.6,96.4,162.7,95.9,162.6,95.3L162.6,95.3z"/>
	<path class="st2" d="M238.1,112.2c-0.7,0.3-1.2,0.1-1.2-0.6h-0.2c-1,1.1-2.6,1.3-3.8,0.5c-1.3-0.8-1.9-2.3-1.6-3.8
		c0.1-2.4,1.7-3.9,3.8-3.6c0.6,0.2,1.1,0.4,1.6,0.7c0.1-1.3-0.1-2.5,0.1-3.7c0.3-0.2,0.7-0.2,1-0.1
		C238.2,105.1,238.3,108.7,238.1,112.2z M236.7,108.4v-0.7c-0.1-1-0.8-1.8-1.7-2c-0.9,0-1.8,0.5-2.1,1.4c-0.5,0.9-0.5,2.1,0,3
		c0.4,1,1.5,1.4,2.5,1c0,0,0,0,0.1,0c0.4-0.2,0.8-0.6,1-1C236.6,109.5,236.7,108.9,236.7,108.4L236.7,108.4z"/>
	<path class="st2" d="M148.6,92.1v-3.5c0.3-0.3,0.8-0.3,1.2-0.1c0.4,0.2,0.5,7.8,0.2,10.5c-0.6,0.2-1,0.2-1.3-0.6
		c-0.4,0-0.6,0.3-0.8,0.5c-1.4,0.9-3.3,0.5-4.1-0.9c0,0,0,0,0,0l-0.4-0.7c-0.5-1.2-0.5-2.4,0-3.6c0.5-1.6,2.3-2.6,3.9-2.1
		c0.3,0.1,0.5,0.2,0.8,0.3C148.2,92.1,148.4,92.1,148.6,92.1z M148.6,95.4v-0.9c-0.1-1-0.8-1.8-1.7-2c-1,0-1.8,0.6-2.2,1.5
		c-0.3,0.9-0.3,2,0,2.9c0.3,0.8,1.1,1.3,2,1.3c0.8,0,1.5-0.6,1.7-1.4C148.6,96.3,148.7,95.9,148.6,95.4L148.6,95.4z"/>
	<path class="st2" d="M182.4,105.6v-2c0-0.6,0-1.2,0.1-1.7c0.4-0.2,0.8-0.2,1.2,0v10.4c-0.7,0.3-1,0.2-1.2-0.6h-0.2
		c-1,1-2.5,1.2-3.7,0.5c-1.3-0.8-2-2.3-1.7-3.8c-0.1-1.6,0.9-3.1,2.5-3.6C180.5,104.5,181.6,104.8,182.4,105.6z M182.4,108.7v-0.9
		c0-1.1-1-2-2.1-2c-0.9,0-1.6,0.6-1.9,1.4c-0.4,1-0.4,2.2,0.1,3.2c0.5,0.9,1.6,1.3,2.5,0.8l0,0c0.2-0.1,0.4-0.2,0.6-0.5
		C182.3,110.2,182.5,109.5,182.4,108.7L182.4,108.7z"/>
	<path class="st2" d="M212.5,108.4c-0.4,1.4,0,2.5-0.2,3.8c-0.3,0.2-0.8,0.3-1.2,0.1v-9.9c1.3-0.3,2.6-0.4,3.9-0.1
		c1.3,0.2,2.3,1.2,2.4,2.5c0.1,1.4-0.7,2.7-2,3.2C214.5,108.3,213.5,108.4,212.5,108.4z M212.4,107c1.1,0.4,2.3,0.1,3.1-0.7
		c0.6-0.7,0.6-1.6,0-2.3c-0.8-0.8-2.1-1-3.1-0.5C212.3,104.7,212.3,105.9,212.4,107L212.4,107z"/>
	<path class="st2" d="M186.9,90.1c-2-0.3-3.9-0.7-5.2,1.3c-1.1,1.5-1.1,3.5-0.1,5.1c1.3,2.1,3.2,1.8,5.2,1.5c0.3,0.3,0.4,0.6,0.4,1
		c-1.6,0.7-3.5,0.6-5.1-0.1c-1.4-0.8-2.4-2.2-2.5-3.8c-0.5-2.9,1.4-5.7,4.3-6.3c0.7-0.1,1.3-0.1,2,0c0.3,0,0.6,0.1,0.9,0.2
		C187.4,89.2,187.4,89.5,186.9,90.1z"/>
	<path class="st2" d="M212,91.5c1.9,0,3.5,1.5,3.6,3.3v0.6c0.2,2-1.3,3.8-3.3,3.9c0,0,0,0,0,0H212c-2,0-3.6-1.6-3.6-3.6v-0.3
		c-0.2-2,1.3-3.8,3.3-3.9c0,0,0,0,0,0C211.9,91.5,211.9,91.4,212,91.5z M209.7,95.2c0,0.6,0.1,1.3,0.4,1.8c0.3,0.7,1,1.2,1.9,1.3
		c0.8,0,1.5-0.4,1.7-1.2c0.6-1.1,0.6-2.5-0.1-3.6c-0.5-0.8-1.6-1.1-2.4-0.7C210.2,93.3,209.7,94.2,209.7,95.2L209.7,95.2z"/>
	<path class="st2" d="M193.1,91.5c1.8-0.1,3.4,1.2,3.6,3.1c0,0.1,0,0.2,0,0.3v0.5c0.2,2-1.3,3.8-3.3,4c0,0,0,0,0,0h-0.2
		c-2,0-3.6-1.5-3.7-3.5v-0.5c-0.1-2,1.4-3.7,3.4-3.9L193.1,91.5z M190.8,95.2c0,0.6,0.1,1.3,0.5,1.8c0.3,0.7,1.1,1.2,1.9,1.2
		c0.8,0,1.5-0.4,1.7-1.2c0.7-1.1,0.6-2.5-0.1-3.6c-0.4-0.9-1.5-1.2-2.4-0.8c-0.1,0-0.1,0.1-0.2,0.1l0,0
		C191.2,93.2,190.7,94.2,190.8,95.2L190.8,95.2z"/>
	<path class="st2" d="M230.1,108.7c0.1,2-1.4,3.7-3.4,3.9h-0.4c-1.9,0-3.5-1.5-3.6-3.5v-0.3c-0.2-2,1.3-3.8,3.3-3.9c0,0,0,0,0,0h0.4
		c2,0.1,3.5,1.7,3.5,3.7C230.1,108.5,230.1,108.6,230.1,108.7z M228.7,108.7c0-1.6-0.9-2.9-2.2-2.9c-1.4,0.2-2.5,1.5-2.3,2.9
		c-0.3,1.2,0.6,2.5,1.8,2.7c1.2,0.3,2.5-0.6,2.7-1.8C228.8,109.3,228.8,109,228.7,108.7z"/>
	<path class="st2" d="M276.6,91.5c1.9,0,3.5,1.5,3.6,3.3v0.6c0.2,2-1.3,3.8-3.3,3.9c0,0,0,0,0,0h-0.4c-2,0-3.6-1.6-3.6-3.6v-0.3
		c-0.2-2,1.4-3.8,3.4-3.9c0,0,0.1,0,0.1,0C276.4,91.4,276.5,91.4,276.6,91.5C276.6,91.5,276.6,91.5,276.6,91.5z M278.8,95.4
		c0-0.6-0.1-1.3-0.5-1.8c-0.3-0.7-1-1.1-1.7-1c-0.8,0-1.5,0.3-1.9,1c-0.3,0.6-0.5,1.2-0.5,1.8c-0.1,1.4,0.8,2.6,2.1,2.9
		C277.8,98.2,278.9,97,278.8,95.4C278.8,95.5,278.8,95.5,278.8,95.4z"/>
	<path class="st2" d="M240.8,104.9c0.4-0.2,0.8-0.2,1.2,0c0.1,1.2,0.1,2.4,0.1,3.6c0,0.5,0,1,0.1,1.5c0,0.7,0.5,1.2,1.2,1.4
		c0.7,0.1,1.3-0.3,1.6-0.9c0.3-0.5,0.3-1,0.2-1.5v-4c0.3-0.2,0.8-0.3,1.2-0.1v7.4c-0.6,0.2-0.9,0.2-1-0.6c-0.4,0-0.6,0.3-0.8,0.5
		c-1.6,1-3.2,0.2-3.6-1.7C240.7,108.6,240.6,106.7,240.8,104.9z"/>
	<path class="st2" d="M160.4,104.7c1.9,0,3.5,1.5,3.6,3.4c0,0,0,0,0,0v0.3c0.2,2-1.3,3.8-3.3,4c0,0,0,0,0,0h-0.4
		c-2,0-3.6-1.6-3.6-3.6v-0.3c-0.2-2,1.3-3.8,3.3-3.9c0,0,0,0,0,0L160.4,104.7z M162.6,108.7c0-1.6-0.9-2.9-2.2-2.9s-2.2,1.2-2.2,2.8
		s0.9,3,2.2,3C161.8,111.4,162.8,110.1,162.6,108.7z"/>
	<path class="st2" d="M268.8,104.7c2,0,3.6,1.6,3.6,3.6v0.3c0.2,2-1.3,3.8-3.4,4h-0.4c-1.9,0-3.5-1.6-3.5-3.5c0,0,0,0,0,0v-0.2
		c-0.2-2,1.2-3.8,3.2-4C268.6,104.7,268.7,104.7,268.8,104.7z M270.9,108.7c0-1.6-0.9-2.9-2.2-2.9s-2.2,1.2-2.2,2.9s1,2.9,2.2,2.9
		C270.1,111.3,271,110.1,270.9,108.7L270.9,108.7z"/>
	<path class="st2" d="M200.7,106.2c-0.4-0.5-0.4-0.8,0.1-1c1.1-0.6,2.4-0.6,3.5-0.1c0.6,0.4,1.1,1,1.2,1.7c0.2,1.7,0,3.6,0.2,5.3
		c-0.5,0.3-1.1,0.2-1.5-0.2l0,0c-0.4,0.2-0.8,0.3-1.2,0.6c-1.1,0.4-2.4-0.1-2.9-1.2c-0.6-1.2-0.1-2.6,1-3.2c0.9-0.5,1.9-0.7,2.9-0.7
		C204.4,106,203.5,105.6,200.7,106.2z M204.2,108.7c-0.6-0.1-1.3-0.1-1.9,0.1c-0.7,0.2-1.1,0.8-1,1.5c0,0.6,0.4,1.1,0.9,1.2
		c0.7,0.2,1.4-0.1,1.7-0.7C204.4,110.2,204.4,109.4,204.2,108.7L204.2,108.7z"/>
	<path class="st2" d="M258.1,91.6c0.3-0.2,0.6-0.3,0.9-0.1c0.4,0.2,0.1,0.6,0.4,0.8c0.1,0,0.3,0,0.4-0.1c0.3-0.3,0.7-0.6,1.2-0.7
		c1.3-0.5,2.7,0.1,3.2,1.4c0,0,0,0.1,0,0.1c0.1,0.2,0.1,0.4,0.1,0.6c0.2,1.8,0.3,3.5,0.1,5.3c-0.3,0.2-0.8,0.3-1.2,0.1
		c-0.2-0.7-0.3-1.4-0.2-2.1v-2.4c-0.1-1.3-0.6-1.8-1.6-1.8c-1,0-1.9,0.8-2,1.8v3.6c0,0.3,0,0.6-0.1,0.8c-0.4,0.3-0.7,0.1-1.2,0.1
		L258.1,91.6z"/>
	<path class="st2" d="M171.9,112.2c-0.3,0.2-0.7,0.2-1,0.1c-0.5-0.5-0.2-0.9-0.2-1.5v-2.9c0-1.4-0.6-2-1.6-2c-1.1,0-2,0.9-2,2v3.3
		c0,0.3,0,0.6-0.1,0.9c-0.4,0.2-0.7,0.1-1.2,0c-0.2-2.4,0-4.9-0.1-7.3c0.3-0.2,0.6-0.3,1-0.2c0.4,0.2,0.1,0.7,0.5,0.9
		c0.4-0.3,0.9-0.6,1.4-0.8c1.3-0.5,2.8,0.1,3.4,1.4c0,0.1,0.1,0.2,0.1,0.5c0.2,0.5,0.2,1.1,0.1,1.6
		C172,109.7,172.1,110.9,171.9,112.2z"/>
	<path class="st2" d="M275.1,112.2c-0.4,0.2-0.8,0.2-1.2,0v-7.3c0.2-0.2,0.5-0.3,0.8-0.1c0.4,0.2,0.1,0.6,0.4,0.8s0.2,0,0.4-0.1
		c0.4-0.3,0.8-0.6,1.3-0.7c1.3-0.4,2.7,0.3,3.1,1.6c0,0,0,0,0,0v0.2c0.1,0.7,0.2,1.4,0.2,2.1v3.1c0,0.1,0,0.3-0.1,0.3
		c-0.3,0.2-0.6,0.3-0.9,0.1c-0.2,0-0.3-0.2-0.4-0.3v-4.2c-0.1-1.3-0.6-1.8-1.7-1.8c-1.1,0-1.9,0.9-1.9,2v3
		C275.3,111.4,275.3,111.8,275.1,112.2z"/>
	<path class="st2" d="M200.8,98.9c-0.3,0.1-0.7,0.2-1,0.1c-0.4-0.3-0.5-4.9-0.2-7.4l0.4-0.1c0.2-0.1,0.5,0,0.7,0.1
		c0.2,0.2,0.1,0.6,0.4,0.9c0.3-0.3,0.6-0.5,0.9-0.6c1.2-0.8,2.9-0.5,3.7,0.7c0.2,0.4,0.4,0.8,0.5,1.3v1.5c0,1.2,0,2.3-0.1,3.5
		c-0.3,0.2-0.8,0.3-1.2,0.1c-0.2-1-0.2-1.9-0.1-2.9v-1.6c-0.1-1.2-0.6-1.7-1.6-1.7c-0.9,0-1.8,0.6-2,1.5v1.3L200.8,98.9z"/>
	<path class="st2" d="M141.1,109h-4.7c-0.1,2.1,0.9,2.7,4.2,2.2c0.4,0.5,0.4,0.8-0.5,1c-1.7,0.7-3.6,0.2-4.7-1.3
		c-1-1.8-0.7-4,0.7-5.6c1.1-1.1,3-1.2,4.1,0c0,0,0,0,0,0c0.3,0.3,0.6,0.7,0.7,1.2C141.3,107.3,141.4,108.2,141.1,109z M139.9,108.1
		c-0.1-1.5-0.7-2.2-1.6-2.2s-1.7,0.8-1.9,2.2H139.9z"/>
	<path class="st2" d="M140.7,95.7h-4.7c0,2.1,0.9,2.7,4.2,2.3c0.4,0.6,0.4,0.9-0.5,1c-1.6,0.6-3.5,0.1-4.6-1.2c-1-1.8-0.7-4,0.7-5.6
		c1.1-1.2,3-1.2,4.2-0.1c0.3,0.3,0.6,0.7,0.8,1.2C140.9,94,140.9,94.9,140.7,95.7z M135.8,94.7c1.2,0,2.3,0,3.6-0.1
		c-0.1-1.5-0.7-2.1-1.6-2.2S136,93.2,135.8,94.7L135.8,94.7z"/>
	<path class="st2" d="M250.2,95.9c0.1,2.1,0.8,2.4,4.3,2.2c0.2,0.5,0.2,0.8-0.5,1c-1.9,0.6-4,0-4.7-1.4c-0.9-1.8-0.6-4.1,0.8-5.6
		c1.2-1.1,3-1.1,4.1,0.1c0,0,0,0,0,0c0.2,0.3,0.4,0.6,0.6,1c0.4,0.7,0.4,1.5,0.2,2.3C253.4,96,251.8,95.7,250.2,95.9z M250.2,94.7
		c1.2,0.1,2.4,0.1,3.6,0c-0.1-1.5-0.7-2.2-1.6-2.2S250.4,93.2,250.2,94.7L250.2,94.7z"/>
	<path class="st2" d="M168.1,95.9c0.2,2.2,1,2.5,4.3,2.2c0.4,0.5,0.4,0.8-0.4,1c-1.7,0.7-3.7,0.1-4.7-1.4c-0.9-1.8-0.6-4,0.7-5.6
		c1.1-1.1,2.8-1.1,3.9-0.1c0,0,0,0,0.1,0.1c0.3,0.3,0.6,0.7,0.7,1.2c0.4,0.7,0.4,1.5,0.2,2.2C171.3,95.9,169.7,95.7,168.1,95.9z
		 M168.1,94.9c1.2,0,2.3,0,3.6-0.1c-0.1-1.5-0.7-2.1-1.6-2.2S168.3,93.3,168.1,94.9L168.1,94.9z"/>
	<path class="st2" d="M186.8,109.2c0.1,2.1,0.8,2.4,4.3,2.2c0.3,0.5,0.2,0.8-0.4,1c-1.7,0.7-3.7,0.1-4.8-1.4
		c-0.9-1.9-0.6-4.2,0.9-5.7c1.2-1,2.9-0.9,4,0.2c0.3,0.3,0.5,0.6,0.6,0.9c0.4,0.7,0.4,1.6,0.1,2.3c-0.8,0.1-1.6,0.1-2.4,0.1
		C188.4,109,187.6,109.1,186.8,109.2z M190.3,108c0-1.5-0.6-2.2-1.6-2.2s-1.7,0.8-1.9,2.2C188,108.2,189.1,108.2,190.3,108z"/>
	<path class="st2" d="M267.8,92.9c-0.4-0.5-0.7-0.2-1-0.5s0-0.7,0.9-1c0.2-0.5,0-1,0.2-1.5s0.7-0.2,1-0.3c0.5,0.6,0.1,1.3,0.5,1.8
		c0.5,0.3,1,0,1.5,0.2c0.1,0.7,0.1,0.7-1.6,1.2c-0.1,1.5-0.1,3,0,4.5c0.1,0.9,0.8,0.9,1.5,0.9c0.4,0.7,0.1,1-0.7,1.2
		c-1,0.2-2.1-0.5-2.3-1.5V92.9L267.8,92.9z"/>
	<path class="st2" d="M149.1,106.2c-0.4-0.5-0.8-0.2-1-0.5c-0.4-0.9,0.5-0.8,0.9-0.9c0.4-0.5,0-1,0.2-1.5c0.3-0.2,0.6-0.3,1-0.3
		c0.5,0.5,0,1.3,0.5,1.8c0.5,0.3,1,0,1.5,0.2c0.1,0.8,0.1,0.8-1.6,1.2c-0.1,1.5-0.1,3.1,0,4.6c0.1,0.9,0.9,0.7,1.5,0.8
		c0.4,0.7,0.1,1-0.6,1.2c-1,0.2-2.1-0.5-2.3-1.5v-0.6C149.1,109.1,149.1,107.6,149.1,106.2z"/>
	<path class="st2" d="M223.5,91.7v0.5c0,0.2-0.1,0.3-0.1,0.5c-2.9-0.5-4.6,0.5-3.9,3.7c0.4,1.5,1.4,1.8,3.8,1.5
		c0.4,0.9,0.4,0.9-0.6,1.2c-1.4,0.4-3,0-4-1.2c-1-1.5-1.1-3.3-0.3-4.8c0.8-1.4,2.4-2.1,3.9-1.7C222.7,91.4,223.1,91.6,223.5,91.7z"
		/>
	<path class="st2" d="M253.4,106.1c-2.9-0.2-4,0.6-4,2.7s1.2,2.9,4,2.7c0.4,0.7,0.1,0.9-0.6,1.2c-1.5,0.5-3.1,0-4.2-1.2
		c-0.9-1.5-0.9-3.5,0-5c1-1.3,2.7-1.9,4.3-1.4C253.7,105,253.7,105,253.4,106.1z"/>
	<path class="st2" d="M260.2,111.4c0.5,0.8-0.1,1-0.7,1.2c-1.5,0.5-3.1,0-4-1.3c-1-1.5-1-3.3-0.1-4.9c0.8-1.3,2.5-2,4-1.6
		c0.4,0,0.7,0.1,1,0.3c0.2,0.3,0.1,0.7-0.2,0.9c-2.7-0.5-4.4,0.3-3.9,3.5C256.5,111.2,257.4,111.5,260.2,111.4z"/>
	<path class="st2" d="M146.6,106.1c-0.4-0.1-0.8-0.2-1.3-0.2c-0.5-0.1-1,0.2-1.2,0.7c-0.1,0.5,0.1,1,0.6,1.2c0.5,0.2,1,0.5,1.5,0.8
		c1,0.6,1.4,1.9,0.8,3c-0.3,0.6-0.9,1-1.6,1c-0.9,0.2-1.9,0.1-2.7-0.3c-0.2-0.3-0.1-0.8,0.2-1h0.4c0.5,0.1,0.8,0.2,1.3,0.3
		c0.6,0.1,1.1-0.2,1.3-0.8c0.2-0.5-0.1-1.1-0.6-1.3c0,0,0,0,0,0c-0.3-0.2-0.6-0.4-1-0.5c-1.1-0.4-1.7-1.7-1.3-2.8
		c0-0.1,0.1-0.2,0.1-0.3c0.8-1.1,2.3-1.4,3.5-0.8C147,105.3,146.9,105.6,146.6,106.1z"/>
	<path class="st2" d="M196.8,101.9c0.4-0.2,0.8-0.2,1.2,0v10.2c-0.1,0.1-0.3,0.2-0.5,0.2c-0.2,0-0.5,0-0.7-0.1L196.8,101.9z"/>
	<path class="st2" d="M220,105.7c1-0.9,1-0.9,2.2-0.9c0.2,0.3,0.2,0.7,0.1,1c-0.1,0.1-0.2,0.1-0.4,0.1c-1.2,0.1-2.1,1.2-2,2.4
		c0,0,0,0,0,0v0.1c0.1,1.2,0,2.4-0.1,3.6c-0.4,0.3-0.9,0.3-1.3,0.1c-0.2-2.4,0-4.9-0.1-7.3c0.2-0.3,0.6-0.4,0.9-0.3
		C219.8,104.6,219.7,105.5,220,105.7z"/>
	<path class="st2" d="M244.4,91.6c0.4-0.2,0.9-0.2,1.3,0V99c-0.1,0-0.4,0.1-0.5,0.1h-0.8C244.3,96.6,244.3,94,244.4,91.6z"/>
	<path class="st2" d="M227.4,98.9c-0.4,0.1-0.8,0.1-1.2,0v-7.2c0.3-0.2,0.8-0.3,1.2-0.1V98.9z"/>
	<path class="st2" d="M263.4,112.2c-0.4,0.2-0.8,0.3-1.3,0.1c-0.2-2.4,0-4.9-0.1-7.3c0.4-0.3,0.9-0.4,1.4-0.1
		C263.5,107.3,263.4,109.8,263.4,112.2z"/>
	<path class="st2" d="M153.7,104.9c0.3-0.2,0.8-0.3,1.2-0.1c0.2,2.5,0.2,4.9,0,7.4c-0.4,0.1-0.8,0.1-1.2,0V104.9z"/>
	<path class="st2" d="M150.6,87.6c0.9-1.3,1.7-2.7,2.4-4.2c0.7-0.9,1.3-1.9,1.7-2.9c0.1-0.5,0.7-0.6,1-0.6c0.2,0.1,0.3,0.2,0.2,0.4
		c0,0.1-0.1,0.1-0.1,0.2c-1.4,1.5-1.9,3.5-3,5.1c-0.4,0.7-0.8,1.3-1.4,1.8C151.2,87.6,150.9,87.7,150.6,87.6z"/>
	<path class="st2" d="M268,104.1c0.9-2.2,1.2-2.3,2.8-2C269.8,102.8,269.5,104.1,268,104.1z"/>
	<path class="st2" d="M162.3,102c-1.2,1.8-1.5,2.1-2.4,2C160.6,102,160.8,101.8,162.3,102z"/>
	<path class="st2" d="M155.4,102.8c0,0.6-0.2,0.9-0.8,0.9c-0.4,0.1-0.8-0.2-0.9-0.6v-0.1c-0.1-0.4,0.2-0.8,0.6-0.9h0.2
		C154.9,102.1,155.4,102.5,155.4,102.8L155.4,102.8z"/>
	<path class="st2" d="M246,89.7c0.1,0.5-0.3,0.9-0.7,0.9c0,0-0.1,0-0.1,0c-0.4,0-0.8-0.4-0.8-0.8c0-0.4,0.4-0.8,0.8-0.8l0,0
		c0.3-0.1,0.7,0.1,0.8,0.4C246,89.5,246,89.6,246,89.7z"/>
	<path class="st2" d="M263.7,103c0,0.4-0.3,0.8-0.8,0.8c0,0,0,0,0,0l0,0c-0.5,0-0.8-0.2-0.8-0.7V103c-0.1-0.5,0.2-0.8,0.7-0.9h0.1
		C263.4,102.2,263.7,102.6,263.7,103z"/>
	<path class="st2" d="M227.1,88.8c0.5,0,0.8,0.2,0.8,0.7v0.1c0,0.5-0.3,0.9-0.8,0.9c-0.5,0-0.9-0.3-0.9-0.8l0,0v-0.1
		C226.2,89.2,226.6,88.9,227.1,88.8z"/>
	<path class="st2" d="M137.7,64.1c1-0.8,2.4-1.1,3.6-0.7C140.1,63.7,138.9,64,137.7,64.1z"/>
	<path class="st2" d="M148.6,32.5c-0.4,0.9-1.3,1.3-2.2,1c-0.2-0.1-0.4-0.2-0.6-0.3c-0.4-0.5-0.1-0.8,0.4-0.9
		C147,32,147.9,32.1,148.6,32.5z"/>
</g>
</svg>
