<svg xmlns="http://www.w3.org/2000/svg" xmlns:xlink="http://www.w3.org/1999/xlink" viewBox="0 0 700 261.84"><defs><linearGradient id="a" y1="130.92" x2="700" y2="130.92" gradientUnits="userSpaceOnUse"><stop offset="0" stop-color="#7fffd4"/><stop offset="1" stop-color="#caf3bb"/></linearGradient></defs><title>Recurso 17</title><path d="M420,137.84C236.73,51.27,99.38,13.67,0,0V261.84H700V228.44C613.1,212.9,519,184.59,420,137.84ZM154.6,248.37l-10.27,1.46-4-27.75-27.08,3.86-1.44-10.11L138.93,212l-4-27.75,10.27-1.46,4,27.75,27.08-3.86,1.44,10.11-27.08,3.86Zm234.72-34.26-4.74.68L382.75,202l-12.51,1.78-.67-4.67,12.51-1.79-1.83-12.82,4.74-.68,1.83,12.82,12.51-1.79.67,4.67-12.51,1.79Z" style="fill:url(#a)"/></svg>