<?xml version="1.0" encoding="utf-8"?>
<!-- Generator: Adobe Illustrator 21.1.0, SVG Export Plug-In . SVG Version: 6.00 Build 0)  -->
<svg version="1.1" id="Capa_1" xmlns="http://www.w3.org/2000/svg" xmlns:xlink="http://www.w3.org/1999/xlink" x="0px" y="0px"
	 viewBox="0 0 188 89.8" style="enable-background:new 0 0 188 89.8;" xml:space="preserve">
<style type="text/css">
	.st0{opacity:0.9;}
	.st1{fill:#FFFFFF;}
</style>
<title>asset-logos-svg</title>
<g class="st0">
	<path class="st1" d="M27.8,43.6c-0.6,0-0.2-0.6-0.5-0.8c-0.5,0.1-0.9,0.3-1.4,0.6c0.4,0.3,0.7,0.1,1,0.3c0.1,0.3-0.1,0.4-0.3,0.5
		c-1.3,0.8-2.6,1.6-3.9,2.4c-0.3,0.3-0.7,0.3-1.1,0.2c0.2-0.8,0.7-1.4,1.4-1.8c0.7-0.4,1.4-0.8,2.3-1.3c-2.4-0.3-4.7-1-6.9-2
		c0,1.6,0.5,3.2-0.5,4.6c-0.2-1.4,0.2-2.8-0.5-4.2c-0.5,0.9-0.8,1.9-2.1,2c0.9-0.9,1.1-2,1.7-3.1c-1.6-1-3.2-2.2-4.6-3.4
		c-0.1,8.6-0.1,17.2-0.1,25.8c-1.9,0.1-3.7,0.1-5.5,0c-0.3-0.4-0.4-0.9-0.3-1.3c0-12.1,0-24.1,0-36.2c-0.1-2.4,0-4.9,0.4-7.3
		c0.4-2.2,1.2-4.4,2.3-6.3c0.3-0.5,0.7-0.9,0.6-1.6c-0.1-0.4,0.3-0.6,0.7-0.6c0.1,0.4-0.3,0.6-0.2,1c2.1,0.2,4.2,0.8,6.1,1.6
		c1.9,0.8,3.6,2,5.5,2.9c-0.9-1.6-7-5.2-11.1-5.6c0.9-1.3,2-2.5,3.2-3.6C13.3,6.1,12.5,6,11.7,6c-0.9,0-1.9,0-2.8,0
		C8.5,6,8.1,5.9,8,5.5s0.3-0.7,0.8-0.8c1.2-0.3,2.5-0.3,3.7,0.1c0.9,0.3,1.8,0.6,2.8,0.6c0.9-0.1,1.6-0.9,2.5-1.3
		c10.3-5.5,23.1-1.6,28.5,8.7c5,9.5,2.2,21.2-6.6,27.3c-0.3,0.2-0.6,0.3-0.7,0.7c1,0,2,0.3,2.9,0.8c0,0.8-0.9,1.1-1,1.9
		c0.5-0.1,0.9-0.4,1.2-0.8c0.4-0.4,1-0.5,1.4-0.1l0,0c0.7,0.5,1.2,1.2,1.7,1.9c0.3,0.4,0.2,0.9-0.2,1.2c-0.6,0.6-1.3,1.1-2,1.6
		c-0.3,0.2-0.7,0.2-0.8,0.8c1.6-0.3,2.5-1.4,3.9-2c0.6,1.2,1.1,2.5,1.3,3.8c0.1,0.3-0.1,0.6-0.4,0.8l-1,0.6c0.1,0.1,0.1,0.2,0.2,0.2
		c1.5-0.1,1.6,0,1.5,1.4c-0.1,2.2-0.9,4.3-2.3,6c-0.2,0.3-0.5,0.6-0.9,0.7c-1.1-1.2-2.3-2.3-3.5-3.3c-1.3-1-2.7-1.8-3.9-2.8
		c-0.4,0.3-0.3,0.5-0.4,0.8c-0.4,1.9-1,3.8-1.6,5.7c-0.1,0.3-0.2,0.5-0.2,0.8c0,0.4-0.2,0.6-0.7,0.6c-0.5-0.7-0.6-1.5-0.4-2.3
		c0.4-1.7,0.9-3.4,1.6-5.1c0.3-0.7,0.7-1.5,0.2-2.2c0.2-0.5,0.9-0.2,0.9-0.9c-0.3-0.2-0.6-0.2-0.9-0.1c-0.7,0.1-1.3-0.3-1.5-1l0,0
		c-0.2-1.1-1.2-1.9-2.3-1.9c-0.4-0.1-0.9-0.2-1.3-0.4C29.1,46.8,27.8,45.3,27.8,43.6c0.5,0.1,1,0,1.5-0.2l-0.9-1.8
		C28,42.2,27.8,42.9,27.8,43.6z M34.9,42.3c-0.3,0.7-0.8,1.3-1.3,1.8c-0.8-1.1-0.8-1.1-1.4-0.9c0,0.4,0.3,0.7,0.2,1.1
		c-1.7-1.1-1.7-1.1-2.8-0.6c1.3,1.3,2.9,1.7,4.4,2.7c-0.3-1.2,0.6-1.6,1-2.3s1-1.4,1.5-2.3C36,42,35.5,42.1,34.9,42.3
		c1.2-2,2.2-4.1,3.1-6.3c0.3-0.7,0.4-1.5,0.3-2.3c-0.2-1.4-0.6-2.8-1.1-4.1c-0.1-0.3-0.2-0.7-0.6-0.9c-0.2,0-0.3,0.1-0.4,0.3
		c-1.4,1.6-2.7,3.3-3.9,5.1c-1.3,2.1-1.4,4.7-0.2,6.9C33.2,43.1,32.7,43,34.9,42.3L34.9,42.3z M16.6,25.5c1.4-1.1,3.4-0.9,4.7,0.4
		c0.7,0.6,1.5,0.9,2.4,1.1c1.9,0.6,4,0.5,5.8-0.4c1-0.5,1.7-1.5,1.8-2.6c0.2-2.2-1.2-4.3-3.4-4.9c-1.2-0.3-2.4-0.2-3.6,0.1
		c-1.2,0.1-2.3,0.6-3.2,1.3c-0.5,0.4-1.1,0.8-1.6,1.3C18.3,22.8,17.3,24.1,16.6,25.5L16.6,25.5z M27.3,37.5c1.2,0.4,2.5-0.1,3.1-1.2
		c0.6-1,1-2,1.4-3.1c0.1-0.4,0.2-0.9,0.1-1.3c0-0.8-0.5-1.5-1.3-1.7c-0.6-0.2-1.3,0.1-1.7,0.7c-0.9,0.9-1.4,2.2-1.3,3.4
		C27.7,35.4,27.6,36.5,27.3,37.5L27.3,37.5z M32.7,32.2c1.4-1.1,2.6-2.5,3.4-4c0.2-0.3,0.1-0.7-0.2-0.9c-0.9-1-2-2-3.1-2.8
		c-0.6-0.4-0.9-0.3-1.1,0.3c-0.6,1.2-0.7,2.6-0.2,3.8C32.1,29.7,32.5,31,32.7,32.2L32.7,32.2z M26.6,37.2c0.7-0.8,0.8-1.2,0.2-1.9
		c-0.7-1-1.4-2-2.1-2.9c-1-1.3-2.3-2.4-3.8-3.2c-0.4-0.2-0.8-0.5-1.4-0.2c1.1,1.5,1.9,3.1,2.9,4.6C23.4,35.2,24.8,36.5,26.6,37.2
		L26.6,37.2z M18.8,30.2c-0.9,1.7-1.4,6.9-0.8,8.6c-1,1.1-0.9,2.1,0.2,2.4c0.1-0.1,0.1-0.3,0-0.4c-0.2-1.1,0.1-2.2,0.9-3
		c0.4-0.4,0.6-1,0.4-1.6c-0.1-0.7-0.2-1.4-0.2-2.1C19.2,32.7,19,31.4,18.8,30.2L18.8,30.2z M25.4,10.7c-0.1-0.3-0.1-0.4-0.2-0.4
		c-2.7-1.9-5.6-3.4-8.6-4.7c-0.7-0.4-1.6-0.1-2,0.6C18.4,7,21.8,8.9,25.4,10.7L25.4,10.7z M32.1,43c-0.8-1.5-1.7-2.8-1.9-4.5
		c-0.9,0.4-1.3,1-1,1.9c0.4,1,1,1.9,1.9,2.6C31.3,43.3,31.8,43.3,32.1,43z M22.8,29.9c1.5,1.5,2.9,3.1,4.2,4.9
		c0.3-0.2,0.3-0.4,0.2-0.5c-0.7-1.5-1.5-2.9-2.6-4.2C24.2,29.5,23.6,29.5,22.8,29.9L22.8,29.9z M27.3,13c-1,0.7-3.7,5-3.6,5.8
		C24.4,18.5,26.9,14.5,27.3,13z M20.1,35.9c0.4-0.8,0.9-1.6,1.3-2.4c0.2-0.5,0-1.1-0.4-1.3C19.9,33.5,19.7,34.1,20.1,35.9L20.1,35.9
		z M35.9,48.7l2.9,0.9c-0.4-0.5-0.8-1-1.4-1.3C37,49.1,36.4,48.5,35.9,48.7L35.9,48.7z"/>
	<path class="st1" d="M120.9,47.7c-0.1-1.8-0.1-3.5,0-5.1c1.3-0.4,19-0.4,20.3,0c0.2,0.3,0.2,0.6,0.2,0.9v21.1c0,0.3,0,0.7-0.2,1
		c-1.8,0.1-3.6,0-5.6,0v-8l-0.2-0.1c-2.7,2.4-5.9,4.2-9.4,5c-0.4,0.9,0,1.9-0.3,3H116c-0.3-1,0-2-0.2-3c-2-0.6-3.9-1.4-5.7-2.4
		c-1,0.5-1.4,1.5-2.4,2.1l-6.9-6.9c0.6-0.9,1.5-1.5,2.2-2.4c-1-1.8-1.8-3.7-2.3-5.6c-1-0.3-2.1,0-3.1-0.3v-9.7
		c0.7-0.2,1.5-0.3,2.2-0.2c0.5,0.1,1-0.3,1.1-0.8c0.5-1.7,1.2-3.4,2.1-5c-0.6-0.9-1.5-1.5-2-2.3l7-7c0.6,0.5,1.1,1,1.6,1.6
		c0.3,0.3,0.6,0.5,1,0.2c1.7-0.9,3.4-1.7,5.3-2.2c0.3-1,0-2,0.3-3h9.7c0.4,0.5,0.2,1.1,0.2,1.7c0,1.1,0,1.1,1,1.4
		c1.4,0.4,2.8,1,4.1,1.7c0.4,0.2,0.8,0.4,1.1,0.6l1.6-2.1l7.1,7c-0.4,0.8-1.3,1.2-1.8,2c1.1,1.8,1.9,3.7,2.4,5.8
		c-0.3,0.4-0.6,0.3-0.9,0.3c-1.4,0-2.9,0-4.3,0c-0.6,0.1-1.1-0.3-1.3-0.8c-3.2-7.6-12-11.2-19.6-8s-11.2,12-8,19.6s12,11.2,19.6,8
		c3.3-1.4,6-3.9,7.6-7.1c0.2-0.3,0.3-0.7,0.3-1.1c-2.3,0-4.7,0-7,0S123.3,47.8,120.9,47.7z"/>
	<path class="st1" d="M151.6,59.9v25.9h-5.4c-0.4-0.4-0.3-0.9-0.3-1.4V48.8c0-0.6,0-1.2,0-1.8c-0.7-11.7,7.4-21.3,18.4-22.7
		c11.5-1.5,22.1,6.6,23.6,18.1c0.1,0.9,0.2,1.8,0.2,2.7c0.1,9.3-6,17.6-15,20.3c-7.5,2.2-14.3,0.6-20.3-4.6
		C152.4,60.5,152,60.2,151.6,59.9z M166.9,60.2c8.3,0,15.1-6.7,15.1-15s-6.7-15.1-15-15.1s-15.1,6.7-15.1,15v0.1
		C151.9,53.5,158.6,60.2,166.9,60.2z"/>
	<path class="st1" d="M94.2,47c-0.5,2-1.2,4-2.3,5.8c0.6,0.9,1.5,1.5,2.1,2.2l-7,7c-0.8-0.5-1.3-1.4-2.2-2c-1.8,1.1-3.7,1.9-5.6,2.4
		c-0.4,1,0,2-0.3,3h-9.7c-0.4-0.9,0-1.9-0.3-2.9c-2-0.5-4-1.3-5.8-2.3c-0.9,0.5-1.3,1.4-2,1.8l-7-7c0.4-0.5,0.8-0.9,1.3-1.3
		c0.3-0.2,0.4-0.7,0.2-1c-1-1.7-1.7-3.6-2.2-5.5c-0.9-0.3-1.9,0-2.8-0.3v-9.8c0.9-0.4,1.8,0,2.8-0.3c0.6-2,1.4-4,2.4-5.8
		c-0.4-0.9-1.3-1.3-1.8-2l7.1-7.3l1.6,2.1c1.9-1.1,4-1.9,6.1-2.5c0.4-0.9,0-1.9,0.3-2.9h9.8c0.3,0.9,0,1.9,0.3,2.9
		c1.5,0.4,2.9,1,4.2,1.7c1.6,0.8,1.6,0.8,2.9-0.5c0.2-0.3,0.5-0.5,0.8-0.7l7,7.1c-0.4,0.6-1.3,1.2-2,2.1c1,1.7,1.8,3.6,2.2,5.5
		c-0.2,0.2-0.6,0.3-0.9,0.3c-1.4,0-2.8,0-4.2,0c-0.7,0.1-1.3-0.4-1.4-1c-1.8-4.2-5.3-7.3-9.7-8.5c-8-2.4-16.4,2.1-18.8,10.2
		s2.1,16.4,10.2,18.8c7.4,2.2,15.2-1.5,18.2-8.5c0.2-0.6,0.8-1,1.4-0.9C90.7,47.1,92.4,47,94.2,47z"/>
	<path class="st1" d="M99.8,77.6c-0.4,0.2-0.8,0.1-1.1-0.1c-0.1-2.1,0-4.2-0.1-6.2c0.2-0.2,0.6-0.3,0.9-0.2c0.3,0.2,0,0.6,0.3,0.8
		c1.3-1,2.5-1.3,3.7,0.1c0.3-0.1,0.5-0.3,0.7-0.5c0.9-0.7,2.2-0.6,2.9,0.2c0.3,0.3,0.4,0.7,0.5,1.1c0.2,1.6,0.2,3.1,0,4.7
		c-0.1,0.1-0.3,0.2-0.5,0.2s-0.4,0-0.5-0.2c-0.1-1-0.1-2.1-0.1-3.1c0-0.4,0-0.9-0.1-1.3c-0.2-0.6-0.5-1-1.1-1s-1.2,0.4-1.3,1.1
		c-0.1,0.5-0.1,1.1-0.1,1.6c0,0.9,0,1.8-0.1,2.7c-0.3,0.2-0.6,0.2-0.9,0.1c-0.1-0.1-0.2-0.2-0.2-0.4c0-1,0-2.1,0-3.1
		c0-1.3-0.5-2.1-1.3-2.1s-1.5,0.8-1.5,2.2C99.9,75.3,99.9,76.5,99.8,77.6z"/>
	<path class="st1" d="M13.7,81.4c-2.5-0.6-4-0.2-4.8,1.2c-0.8,1.4-0.7,3.2,0.2,4.6c1,1.1,2.6,1.5,4,0.9c0.1-0.8,0.1-1.6,0-2.4
		c-0.5-0.4-1.1,0-1.6-0.3c-0.2-0.2-0.2-0.5,0-0.8c0.9-0.1,1.8-0.1,2.6,0c0.3,1.4,0.3,2.9,0.1,4.4c-1.6,0.7-3.4,0.7-5,0
		c-1.3-0.7-2.1-2-2.1-3.4c-0.4-2.6,1.4-5,4-5.4l0,0c0.7-0.1,1.5,0,2.2,0.2C14,80.5,14.1,80.6,13.7,81.4z"/>
	<path class="st1" d="M11.8,73.4c1.3,1.1,1.1,2.7,1.6,4.1c-0.3,0.2-0.7,0.2-1.1,0.1c-0.3-0.7-0.6-1.5-0.7-2.3
		C11.2,74,10.5,73.6,9,74c-0.3,1.2,0.1,2.4-0.2,3.5c-0.3,0.2-0.7,0.2-1.1,0.1v-8.5c1.4-0.4,2.8-0.3,4.1,0.1c1.1,0.5,1.6,1.8,1.1,2.9
		c-0.1,0.2-0.2,0.4-0.4,0.6C12.4,72.9,12.1,73.2,11.8,73.4z M9,72.9c1.1,0.1,2.2,0.1,2.8-0.9c0.3-0.5,0.2-1.2-0.3-1.6
		c-0.7-0.6-1.7-0.8-2.6-0.4C8.8,70.9,8.8,71.9,9,72.9L9,72.9z"/>
	<path class="st1" d="M39.8,71.8v-3.1c0.3-0.2,0.7-0.3,1-0.1v9c-0.5,0.2-0.9,0.2-0.9-0.5c-0.4,0-0.6,0.3-0.8,0.5
		c-1.1,0.7-2.5,0.3-3.2-0.8c-0.1-0.1-0.2-0.3-0.2-0.5c-0.3-0.8-0.4-1.6-0.3-2.4C35.5,71.8,37.4,70.1,39.8,71.8z M39.6,74.4
		c0-0.3,0-0.5,0-0.8c-0.1-0.9-0.8-1.5-1.6-1.6c-0.8,0-1.5,0.5-1.8,1.3s-0.3,1.7,0,2.5c0.3,0.9,1.3,1.4,2.2,1c0.5-0.2,0.9-0.6,1-1
		C39.6,75.3,39.6,74.9,39.6,74.4L39.6,74.4z"/>
	<path class="st1" d="M104.8,89c-0.6,0.3-1,0.1-1-0.5h-0.2c-0.9,0.9-2.2,1.1-3.3,0.4c-1.1-0.7-1.6-2-1.4-3.3
		c0.1-2.1,1.5-3.4,3.3-3.1c0.5,0.1,1,0.4,1.4,0.6c0.1-1.1-0.1-2.2,0.1-3.2c0.3-0.2,0.6-0.2,0.9-0.1C105,82.9,105,86,104.8,89z
		 M103.6,85.7c0-0.2,0-0.4,0-0.6c-0.1-0.8-0.7-1.5-1.5-1.7c-0.8,0-1.6,0.5-1.8,1.2c-0.4,0.8-0.4,1.8,0,2.6c0.4,0.9,1.4,1.3,2.2,0.9
		c0.4-0.2,0.7-0.5,0.9-0.9C103.6,86.8,103.7,86.2,103.6,85.7L103.6,85.7z"/>
	<path class="st1" d="M27.5,71.6v-3c0.3-0.2,0.7-0.3,1-0.1c0.3,0.2,0.4,6.7,0.2,9.1c-0.5,0.2-0.9,0.2-1.1-0.5
		c-0.3,0-0.5,0.3-0.7,0.4c-1.2,0.8-2.8,0.4-3.6-0.8c-0.1-0.2-0.2-0.4-0.3-0.6c-0.4-1-0.4-2.1,0-3.1c0.4-1.4,1.9-2.2,3.4-1.8
		c0.3,0.1,0.5,0.2,0.7,0.3C27.1,71.6,27.3,71.6,27.5,71.6z M27.5,74.5c0-0.3,0-0.5,0-0.8c0-0.8-0.7-1.5-1.5-1.7
		c-0.8,0-1.6,0.5-1.9,1.3c-0.3,0.8-0.3,1.7,0,2.5c0.3,0.7,0.9,1.1,1.7,1.1c0.7,0,1.3-0.5,1.5-1.2C27.5,75.3,27.5,74.9,27.5,74.5
		L27.5,74.5z"/>
	<path class="st1" d="M56.7,83.3c0-0.7,0-1.2,0-1.7s0-1,0.1-1.5c0.3-0.2,0.7-0.2,1,0v9c-0.6,0.3-0.9,0.2-1-0.5c-0.1,0-0.2,0-0.2,0
		c-0.8,0.9-2.2,1-3.2,0.4c-1.1-0.7-1.7-2-1.5-3.3c-0.1-1.4,0.8-2.7,2.2-3.1C55,82.4,56,82.6,56.7,83.3z M56.7,86c0-0.3,0-0.5,0-0.8
		c0-0.9-0.8-1.7-1.8-1.7c-0.8,0-1.4,0.5-1.6,1.2c-0.4,0.9-0.3,1.9,0.1,2.8c0.4,0.8,1.4,1.1,2.2,0.7l0,0c0.2-0.1,0.4-0.2,0.5-0.4
		C56.6,87.3,56.8,86.6,56.7,86L56.7,86z"/>
	<path class="st1" d="M82.7,85.7c-0.3,1.2,0,2.2-0.2,3.3c-0.3,0.2-0.7,0.2-1,0.1v-8.6c1.1-0.3,2.3-0.3,3.4-0.1
		c1.1,0.2,2,1.1,2.1,2.2c0.1,1.2-0.6,2.3-1.7,2.8C84.4,85.6,83.5,85.7,82.7,85.7z M82.6,84.5c0.9,0.4,2,0.1,2.7-0.6
		c0.5-0.6,0.5-1.4,0-2c-0.7-0.7-1.8-0.8-2.7-0.4C82.5,82.5,82.5,83.5,82.6,84.5L82.6,84.5z"/>
	<path class="st1" d="M60.6,69.9c-1.7-0.3-3.4-0.6-4.5,1.1c-0.9,1.3-1,3-0.1,4.4c1.1,1.8,2.8,1.6,4.5,1.3c0.3,0.3,0.3,0.5,0.3,0.9
		c-1.4,0.6-3,0.5-4.4-0.1c-1.3-0.7-2.1-2-2.2-3.4c-0.5-2.5,1.2-4.9,3.7-5.4c0.6-0.1,1.2-0.1,1.7,0c0.3,0,0.5,0.1,0.8,0.2
		C61,69.1,61,69.4,60.6,69.9z"/>
	<path class="st1" d="M82.3,71.1c1.7,0,3,1.3,3.1,2.9c0,0.2,0,0.3,0,0.5c0.1,1.7-1.1,3.3-2.9,3.4c-0.1,0-0.2,0-0.2,0
		c-1.7,0-3.1-1.4-3.1-3.1c0-0.1,0-0.2,0-0.3c-0.1-1.8,1.2-3.3,2.9-3.4C82.2,71.1,82.2,71,82.3,71.1z M80.3,74.3
		c0,0.5,0.1,1.1,0.3,1.6c0.3,0.6,0.9,1.1,1.6,1.1c0.7,0,1.3-0.4,1.5-1c0.5-1,0.5-2.2-0.1-3.1c-0.4-0.7-1.4-1-2.1-0.6
		C80.8,72.6,80.3,73.4,80.3,74.3L80.3,74.3z"/>
	<path class="st1" d="M65.9,71.1C67.6,71,69,72.3,69,74c0,0.1,0,0.3,0,0.4c0.2,1.8-1.1,3.3-2.9,3.5c-0.1,0-0.1,0-0.2,0
		c-1.7,0-3.1-1.3-3.2-3c0-0.1,0-0.2,0-0.4c-0.1-1.7,1.2-3.3,2.9-3.4C65.7,71.1,65.8,71.1,65.9,71.1z M63.9,74.3
		c0,0.6,0.1,1.1,0.4,1.6c0.3,0.6,0.9,1,1.6,1c0.7,0,1.3-0.4,1.5-1c0.6-1,0.5-2.2-0.1-3.1c-0.4-0.8-1.4-1.1-2.2-0.6l0,0
		C64.3,72.6,63.9,73.4,63.9,74.3L63.9,74.3z"/>
	<path class="st1" d="M97.9,86c0.1,1.7-1.2,3.3-2.9,3.4c-0.1,0-0.2,0-0.3,0c-1.7,0-3.1-1.4-3.1-3c0-0.1,0-0.2,0-0.3
		c-0.1-1.7,1.1-3.3,2.9-3.4c0.1,0,0.2,0,0.3,0c1.7,0.1,3.1,1.5,3,3.2C97.9,85.8,97.9,85.9,97.9,86z M96.7,86c0-1.4-0.8-2.5-1.9-2.5
		s-2,1.1-2,2.5c-0.1,1.2,0.7,2.2,1.9,2.4C95.9,88.3,96.8,87.2,96.7,86z"/>
	<path class="st1" d="M138.1,71.1c1.7,0,3,1.3,3.1,2.9c0,0.2,0,0.3,0,0.5c0.1,1.7-1.1,3.3-2.9,3.4c-0.1,0-0.2,0-0.3,0
		c-1.7,0-3.1-1.4-3.1-3.1c0-0.1,0-0.2,0-0.3c-0.1-1.8,1.2-3.3,3-3.4C137.9,71.1,138,71,138.1,71.1z M140,74.5c0-0.5-0.1-1.1-0.4-1.6
		c-0.3-0.6-0.9-1-1.5-0.9c-0.7,0-1.3,0.3-1.6,0.9c-0.3,0.5-0.4,1-0.4,1.6c-0.1,1.2,0.7,2.3,1.8,2.5C139.2,76.9,140.1,75.8,140,74.5
		L140,74.5z"/>
	<path class="st1" d="M107.2,82.7c0.3-0.2,0.7-0.2,1,0c0.1,1,0.1,2.1,0.1,3.1c0,0.4,0,0.9,0.1,1.3c0.1,0.6,0.4,1.1,1,1.2
		s1.2-0.3,1.4-0.8c0.2-0.4,0.3-0.8,0.2-1.3v-3.5c0.3-0.2,0.7-0.2,1-0.1V89c-0.5,0.2-0.8,0.2-0.9-0.5c-0.3,0-0.5,0.3-0.7,0.4
		c-1.4,0.9-2.8,0.2-3.1-1.5C107,85.8,107,84.3,107.2,82.7z"/>
	<path class="st1" d="M37.7,82.5c1.7,0,3.1,1.3,3.1,3c0,0.1,0,0.2,0,0.3c0.2,1.8-1.1,3.3-2.9,3.5c-0.1,0-0.2,0-0.3,0
		c-1.7,0-3.1-1.4-3.1-3.1c0-0.1,0-0.2,0-0.3c-0.1-1.8,1.2-3.3,2.9-3.4C37.6,82.5,37.7,82.5,37.7,82.5z M39.6,86
		c0-1.4-0.8-2.5-1.9-2.5s-1.9,1-1.9,2.4s0.8,2.6,1.9,2.6C38.9,88.3,39.8,87.2,39.6,86L39.6,86z"/>
	<path class="st1" d="M131.4,82.5c1.7,0,3.1,1.4,3.1,3.1c0,0.1,0,0.2,0,0.3c0.2,1.7-1.1,3.3-2.9,3.5c-0.1,0-0.2,0-0.3,0
		c-1.7,0-3-1.4-3-3.1c0-0.1,0-0.1,0-0.2c-0.2-1.8,1.1-3.3,2.8-3.5C131.2,82.5,131.3,82.5,131.4,82.5z M133.2,86
		c0-1.4-0.8-2.5-1.9-2.5s-1.9,1-1.9,2.5s0.9,2.5,1.9,2.5C132.5,88.3,133.3,87.2,133.2,86z"/>
	<path class="st1" d="M72.5,83.8c-0.3-0.4-0.3-0.7,0.1-0.9c0.9-0.5,2-0.5,3-0.1c0.6,0.3,0.9,0.9,1,1.5c0.2,1.5,0,3.1,0.2,4.6
		c-0.4,0.3-1,0.2-1.3-0.2l0,0c-0.3,0.2-0.7,0.3-1,0.5c-1,0.4-2.1-0.1-2.5-1c-0.5-1-0.1-2.2,0.9-2.8c0.8-0.4,1.6-0.6,2.5-0.6
		C75.7,83.6,74.9,83.3,72.5,83.8z M75.5,86c-0.5-0.1-1.1-0.1-1.6,0.1c-0.6,0.1-1,0.7-0.9,1.3c0,0.5,0.3,0.9,0.8,1
		c0.6,0.2,1.2-0.1,1.5-0.6S75.7,86.6,75.5,86L75.5,86z"/>
	<path class="st1" d="M122.1,71.2c0.2-0.2,0.5-0.2,0.8-0.1c0.3,0.2,0.1,0.5,0.3,0.7c0.1,0,0.2,0,0.3-0.1c0.3-0.3,0.6-0.5,1-0.6
		c1.1-0.4,2.4,0.1,2.8,1.3c0.1,0.1,0.1,0.3,0.1,0.5c0.2,1.5,0.2,3.1,0.1,4.6c-0.3,0.2-0.7,0.2-1,0.1c-0.2-0.6-0.2-1.2-0.2-1.8
		c0-0.7,0-1.3,0-2.1c-0.1-1.1-0.5-1.6-1.4-1.6s-1.6,0.7-1.7,1.6v0.1c0,1,0,2,0,3c0,0.2,0,0.5-0.1,0.7c-0.3,0.3-0.6,0.1-1,0.1
		L122.1,71.2z"/>
	<path class="st1" d="M47.6,89c-0.3,0.2-0.6,0.2-0.9,0.1c-0.4-0.4-0.2-0.8-0.2-1.3c0-0.8,0-1.6,0-2.5c0-1.2-0.5-1.7-1.4-1.7
		s-1.7,0.8-1.7,1.7v0.1c0,0.9,0,1.8,0,2.8c0,0.3,0,0.6-0.1,0.8c-0.3,0.2-0.6,0.1-1,0c-0.2-2.1,0-4.2-0.1-6.3
		c0.2-0.2,0.6-0.3,0.9-0.2c0.3,0.2,0.1,0.6,0.4,0.8c0.4-0.3,0.8-0.5,1.2-0.7c1.1-0.5,2.4,0.1,2.9,1.2c0,0.1,0.1,0.2,0.1,0.4
		c0.1,0.5,0.2,0.9,0.1,1.4C47.7,86.8,47.8,87.9,47.6,89z"/>
	<path class="st1" d="M136.8,89c-0.3,0.2-0.7,0.2-1,0v-6.3c0.2-0.2,0.5-0.2,0.7-0.1c0.3,0.2,0.1,0.5,0.3,0.7c0.1,0.1,0.2,0,0.3-0.1
		c0.3-0.3,0.7-0.5,1.1-0.6c1.1-0.4,2.4,0.3,2.7,1.4c0,0.1,0,0.1,0,0.2c0.1,0.6,0.2,1.2,0.2,1.8c0,0.9,0,1.8,0,2.7
		c0,0.1,0,0.2-0.1,0.3c-0.2,0.2-0.6,0.2-0.8,0.1c-0.2,0-0.3-0.2-0.3-0.3c0-0.8,0-1.6,0-2.5c0-0.4,0-0.8,0-1.1
		c-0.1-1.1-0.5-1.6-1.5-1.6c-0.9,0-1.6,0.8-1.6,1.7c0,0.9,0,1.8,0,2.7C137,88.3,136.9,88.7,136.8,89z"/>
	<path class="st1" d="M72.6,77.5c-0.3,0.1-0.6,0.2-0.9,0.1c-0.3-0.3-0.4-4.2-0.2-6.4l0.3-0.1c0.2-0.1,0.4,0,0.6,0.1
		c0.2,0.2,0.1,0.5,0.3,0.8c0.2-0.2,0.5-0.4,0.8-0.5c1.1-0.7,2.5-0.4,3.2,0.6c0.2,0.3,0.3,0.7,0.4,1.1c0,0.4,0,0.9,0,1.3
		c0,1,0,2-0.1,3c-0.3,0.2-0.7,0.2-1,0.1c-0.1-0.8-0.2-1.7-0.1-2.5c0-0.5,0-1,0-1.4c-0.1-1-0.5-1.5-1.4-1.5c-0.8,0-1.5,0.5-1.7,1.3
		c0,0.4,0,0.8,0,1.1L72.6,77.5z"/>
	<path class="st1" d="M21,86.2h-4.1c-0.1,1.8,0.8,2.3,3.6,1.9c0.3,0.4,0.3,0.7-0.4,0.9c-1.5,0.6-3.1,0.1-4.1-1.1
		c-0.8-1.6-0.6-3.5,0.6-4.8c1-1,2.6-1,3.6,0c0.3,0.3,0.5,0.6,0.6,1C21.2,84.8,21.2,85.5,21,86.2z M19.9,85.4
		c-0.1-1.3-0.6-1.9-1.4-1.9s-1.5,0.7-1.6,1.9C17.8,85.4,18.9,85.4,19.9,85.4L19.9,85.4z"/>
	<path class="st1" d="M20.6,74.7h-4.1c0,1.8,0.8,2.3,3.6,2c0.3,0.5,0.3,0.8-0.4,0.9c-1.4,0.5-3.1,0.1-4-1.1
		c-0.8-1.6-0.6-3.5,0.6-4.8c1-1,2.6-1,3.6-0.1c0.3,0.3,0.5,0.6,0.7,1C20.8,73.3,20.8,74.1,20.6,74.7z M16.4,73.9c1,0,2,0,3.1-0.1
		c-0.1-1.3-0.6-1.8-1.4-1.9S16.6,72.6,16.4,73.9L16.4,73.9z"/>
	<path class="st1" d="M115.3,74.9c0.1,1.8,0.7,2.1,3.7,1.9c0.2,0.4,0.2,0.7-0.4,0.9c-1.6,0.5-3.5,0-4.1-1.2
		c-0.8-1.6-0.5-3.5,0.7-4.8c1-1,2.6-0.9,3.6,0.1c0.2,0.3,0.4,0.6,0.5,0.9c0.3,0.6,0.4,1.3,0.2,2C118.1,75,116.7,74.7,115.3,74.9z
		 M115.3,73.9c1,0.1,2,0.1,3.1,0c-0.1-1.3-0.6-1.9-1.4-1.9S115.5,72.6,115.3,73.9L115.3,73.9z"/>
	<path class="st1" d="M44.3,74.9c0.2,1.9,0.9,2.2,3.7,1.9c0.3,0.4,0.3,0.7-0.3,0.9c-1.5,0.6-3.2,0.1-4.1-1.2
		c-0.8-1.6-0.5-3.5,0.6-4.8c1-1,2.6-1,3.5,0c0.3,0.3,0.5,0.6,0.6,1c0.3,0.6,0.4,1.3,0.2,1.9C47.1,74.9,45.7,74.7,44.3,74.9z
		 M44.3,74c1,0,2,0,3.1-0.1c-0.1-1.3-0.6-1.8-1.4-1.9S44.5,72.6,44.3,74L44.3,74z"/>
	<path class="st1" d="M60.5,86.4c0.1,1.8,0.7,2.1,3.7,1.9c0.3,0.4,0.2,0.7-0.3,0.9c-1.5,0.6-3.2,0.1-4.1-1.2
		c-0.8-1.6-0.5-3.6,0.8-4.9c1-0.9,2.6-0.8,3.5,0.2c0.2,0.2,0.4,0.5,0.5,0.8c0.3,0.6,0.4,1.3,0.1,2c-0.7,0.1-1.4,0.1-2.1,0.1
		C61.9,86.2,61.2,86.3,60.5,86.4z M63.5,85.4c0-1.3-0.5-1.9-1.4-1.9s-1.5,0.7-1.6,1.9C61.5,85.5,62.5,85.5,63.5,85.4L63.5,85.4z"/>
	<path class="st1" d="M130.5,72.3c-0.3-0.4-0.6-0.2-0.9-0.4s0-0.6,0.8-0.9c0.2-0.4,0-0.9,0.2-1.3c0.3-0.3,0.6-0.2,0.9-0.3
		c0.4,0.5,0.1,1.1,0.4,1.6c0.4,0.3,0.9,0,1.3,0.2c0.1,0.6,0.1,0.6-1.4,1c-0.1,1.3-0.1,2.6,0,3.9c0.1,0.8,0.7,0.8,1.3,0.8
		c0.3,0.6,0.1,0.9-0.6,1c-0.9,0.2-1.8-0.4-2-1.3c0-0.2,0-0.3,0-0.5C130.5,74.8,130.5,73.5,130.5,72.3z"/>
	<path class="st1" d="M27.9,83.8c-0.3-0.4-0.7-0.2-0.9-0.4c-0.3-0.8,0.4-0.7,0.8-0.8c0.3-0.4,0-0.9,0.2-1.3c0.2-0.2,0.6-0.3,0.9-0.3
		c0.4,0.4,0,1.1,0.4,1.6c0.4,0.3,0.9,0,1.3,0.2c0.1,0.7,0.1,0.7-1.4,1c-0.1,1.3-0.1,2.7,0,4c0.1,0.8,0.8,0.6,1.3,0.7
		c0.3,0.6,0.1,0.9-0.5,1c-0.9,0.2-1.8-0.4-2-1.3c0-0.2,0-0.3,0-0.5C27.9,86.3,27.9,85,27.9,83.8z"/>
	<path class="st1" d="M92.2,71.3c0,0.1,0,0.3,0,0.4c0,0.2-0.1,0.3-0.1,0.4c-2.5-0.4-4,0.4-3.4,3.2c0.3,1.3,1.2,1.6,3.3,1.3
		c0.3,0.8,0.3,0.8-0.5,1c-1.3,0.4-2.6,0-3.5-1c-0.8-1.2-0.9-2.9-0.2-4.2c0.7-1.2,2.1-1.8,3.4-1.5C91.6,71.1,91.9,71.2,92.2,71.3z"/>
	<path class="st1" d="M118.1,83.7c-2.5-0.2-3.5,0.5-3.5,2.3s1,2.5,3.5,2.3c0.3,0.6,0.1,0.8-0.5,1c-1.3,0.4-2.7,0-3.6-1
		c-0.8-1.3-0.8-3,0-4.3c0.9-1.1,2.3-1.6,3.7-1.2C118.3,82.8,118.3,82.8,118.1,83.7z"/>
	<path class="st1" d="M123.9,88.3c0.4,0.7-0.1,0.9-0.6,1c-1.3,0.4-2.7,0-3.5-1.1c-0.8-1.3-0.9-2.9-0.1-4.2c0.7-1.2,2.1-1.7,3.5-1.4
		c0.3,0,0.6,0.1,0.9,0.3c0.1,0.3,0.1,0.6-0.2,0.8c-2.3-0.4-3.8,0.3-3.4,3C120.7,88.1,121.5,88.4,123.9,88.3z"/>
	<path class="st1" d="M25.7,83.7c-0.4-0.1-0.7-0.2-1.1-0.2c-0.4-0.1-0.9,0.2-1,0.6s0.1,0.8,0.5,1s0.9,0.4,1.3,0.7
		c0.9,0.5,1.2,1.7,0.7,2.6c-0.3,0.5-0.8,0.9-1.4,0.9c-0.8,0.2-1.6,0.1-2.3-0.3c-0.2-0.3-0.1-0.7,0.2-0.9c0.1,0,0.2,0,0.3,0
		c0.4,0.1,0.7,0.2,1.1,0.3c0.5,0.1,1-0.2,1.1-0.7s-0.1-0.9-0.6-1.1c-0.3-0.2-0.6-0.3-0.9-0.4c-1-0.4-1.4-1.4-1.1-2.4
		c0-0.1,0.1-0.2,0.1-0.3c0.7-0.9,2-1.3,3-0.7C26.1,83,26,83.3,25.7,83.7z"/>
	<path class="st1" d="M69.1,80.1c0.3-0.2,0.7-0.2,1,0v8.8c-0.1,0.1-0.3,0.2-0.4,0.2c-0.2,0-0.4,0-0.6-0.1V80.1z"/>
	<path class="st1" d="M89.2,83.4c0.9-0.8,0.9-0.8,1.9-0.8c0.2,0.3,0.2,0.6,0.1,0.9c-0.1,0.1-0.2,0.1-0.3,0.1c-1,0.1-1.8,1-1.7,2.1
		v0.1c0,1,0.1,2.1-0.1,3.1c-0.4,0.3-0.7,0.2-1.1,0.1c-0.2-2.1,0-4.2-0.1-6.3c0.3-0.3,0.5-0.3,0.8-0.3S88.9,83.2,89.2,83.4z"/>
	<path class="st1" d="M110.3,71.2c0.4-0.2,0.8-0.2,1.1,0v6.4c-0.1,0-0.3,0.1-0.4,0.1c-0.2,0-0.3,0-0.7,0
		C110.2,75.5,110.2,73.3,110.3,71.2z"/>
	<path class="st1" d="M95.6,77.5c-0.3,0.1-0.7,0.1-1,0v-6.2c0.3-0.2,0.7-0.2,1-0.1V77.5z"/>
	<path class="st1" d="M126.7,89c-0.3,0.2-0.7,0.2-1.1,0.1c-0.2-2.1,0-4.2-0.1-6.3c0.3-0.3,0.8-0.3,1.2-0.1
		C126.8,84.8,126.7,86.9,126.7,89z"/>
	<path class="st1" d="M31.9,82.7c0.3-0.2,0.7-0.2,1-0.1c0.2,2.1,0.2,4.3,0,6.4c-0.3,0.1-0.7,0.1-1,0C31.9,87,31.9,84.8,31.9,82.7z"
		/>
	<path class="st1" d="M29.2,67.7c0.8-1.1,1.5-2.3,2.1-3.6c0.6-0.8,1.1-1.6,1.5-2.5c0.1-0.4,0.6-0.5,0.9-0.5c0.3,0.1,0.2,0.4,0.1,0.5
		c-1.2,1.3-1.6,3-2.6,4.4c-0.3,0.6-0.7,1.1-1.2,1.6C29.8,67.8,29.5,67.8,29.2,67.7z"/>
	<path class="st1" d="M130.7,82c0.8-1.9,1-2,2.4-1.7C132.2,80.9,132,82,130.7,82z"/>
	<path class="st1" d="M39.3,80.2c-1,1.6-1.3,1.8-2.1,1.7C37.8,80.2,38,80,39.3,80.2z"/>
	<path class="st1" d="M33.3,80.9c0,0.5-0.2,0.8-0.7,0.8c-0.4,0.1-0.7-0.2-0.8-0.5v-0.1c-0.1-0.4,0.2-0.7,0.5-0.8l0,0
		c0.1,0,0.1,0,0.2,0C32.9,80.3,33.3,80.6,33.3,80.9L33.3,80.9z"/>
	<path class="st1" d="M111.7,69.5c0,0.5-0.3,0.8-0.7,0.8c-0.4,0-0.7-0.3-0.7-0.7c0-0.4,0.3-0.7,0.7-0.7l0,0
		C111.3,68.8,111.7,69,111.7,69.5C111.7,69.4,111.7,69.4,111.7,69.5z"/>
	<path class="st1" d="M127,81c0,0.4-0.3,0.7-0.7,0.7l0,0c-0.4,0-0.7-0.2-0.7-0.6V81c-0.1-0.4,0.2-0.7,0.6-0.8h0.1
		C126.7,80.3,126.9,80.6,127,81z"/>
	<path class="st1" d="M95.3,68.8c0.4,0,0.7,0.2,0.7,0.6v0.1c0,0.4-0.3,0.7-0.7,0.8c-0.4,0-0.7-0.3-0.8-0.7v-0.1
		C94.6,69.1,94.9,68.8,95.3,68.8z"/>
	<path class="st1" d="M18,47.4c1.3-0.8,2-0.9,3.1-0.6C20.1,47.1,19,47.3,18,47.4z"/>
	<path class="st1" d="M27.5,20.1c-0.3,0.8-1.1,1.1-1.9,0.9c-0.2-0.1-0.4-0.2-0.5-0.3c-0.3-0.4-0.1-0.7,0.3-0.8
		C26.1,19.7,26.8,19.8,27.5,20.1z"/>
</g>
</svg>
