<?xml version="1.0" encoding="UTF-8" standalone="no"?>
<!-- Created with sK1/UniConvertor (http://sk1project.org/) -->

<svg
   xmlns:dc="http://purl.org/dc/elements/1.1/"
   xmlns:cc="http://creativecommons.org/ns#"
   xmlns:rdf="http://www.w3.org/1999/02/22-rdf-syntax-ns#"
   xmlns:svg="http://www.w3.org/2000/svg"
   xmlns="http://www.w3.org/2000/svg"
   xmlns:sodipodi="http://sodipodi.sourceforge.net/DTD/sodipodi-0.dtd"
   xmlns:inkscape="http://www.inkscape.org/namespaces/inkscape"
   width="100pt"
   height="100pt"
   viewBox="0 0 100 99.999998"
   id="svg2"
   version="1.1"
   inkscape:version="0.91 r13725"
   sodipodi:docname="Sena Colombia logo.svg"
   style="fill-rule:evenodd">
  <title
     id="title3344">Sena Colombia logo</title>
  <metadata
     id="metadata32">
    <rdf:RDF>
      <cc:Work
         rdf:about="">
        <dc:format>image/svg+xml</dc:format>
        <dc:type
           rdf:resource="http://purl.org/dc/dcmitype/StillImage" />
        <dc:title>Sena Colombia logo</dc:title>
      </cc:Work>
    </rdf:RDF>
  </metadata>
  <defs
     id="defs30" />
  <sodipodi:namedview
     pagecolor="#ffffff"
     bordercolor="#666666"
     borderopacity="1"
     objecttolerance="10"
     gridtolerance="10"
     guidetolerance="10"
     inkscape:pageopacity="0"
     inkscape:pageshadow="2"
     inkscape:window-width="1366"
     inkscape:window-height="706"
     id="namedview28"
     showgrid="false"
     inkscape:showpageshadow="false"
     inkscape:zoom="1"
     inkscape:cx="58.4234"
     inkscape:cy="74.744321"
     inkscape:window-x="-8"
     inkscape:window-y="-8"
     inkscape:window-maximized="1"
     inkscape:current-layer="svg2" />
  <g
     id="g4"
     transform="matrix(0.88434043,0,0,0.88972217,-102.22468,-597.42973)"
     style="fill:#1a1a1a">
    <g
       id="g6"
       style="fill:#1a1a1a">
      <path
         style="fill:#1a1a1a;stroke:none"
         d="m 184.451,686.881 c 0,6.789 -5.503,12.291 -12.291,12.291 -6.788,0 -12.291,-5.502 -12.291,-12.291 0,-6.787 5.503,-12.29 12.291,-12.29 6.788,0 12.291,5.503 12.291,12.29 z"
         id="path8"
         inkscape:connector-curvature="0" />
      <g
         id="g10"
         style="fill:#1a1a1a">
        <path
           style="fill:#1a1a1a;stroke:none"
           d="m 133.317,706.844 c -0.142,-0.56 -0.604,-0.896 -1.208,-1.098 -0.603,-0.201 -1.35,-0.291 -2.167,-0.291 -1.847,0 -2.664,0.336 -2.664,0.919 0,2.418 14.706,0.918 14.706,6.786 0,3.74 -4.938,5.554 -11.97,5.554 -6.749,0 -11.155,-2.486 -11.332,-5.397 l 8.028,0 c 0.178,0.582 0.675,1.007 1.385,1.276 0.675,0.269 1.563,0.403 2.38,0.403 2.096,0 3.481,-0.425 3.481,-1.187 0,-2.441 -14.705,-0.761 -14.705,-6.92 0,-3.427 4.688,-5.152 11.082,-5.152 7.105,0 10.337,2.285 10.941,5.107 l -7.957,0 z"
           id="path12"
           inkscape:connector-curvature="0" />
        <path
           style="fill:#1a1a1a;stroke:none"
           d="m 145.856,718.289 0,-16.126 20.852,0 0,3.762 -12.469,0 0,2.308 10.55,0 0,3.762 -10.55,0 0,2.531 12.966,0 0,3.763 -21.349,0 z"
           id="path14"
           inkscape:connector-curvature="0" />
        <path
           style="fill:#1a1a1a;stroke:none"
           d="m 188.233,710.965 -0.319,-3.673 0,-5.129 8.027,0 0,16.126 -7.85,0 -9.129,-8.78 0.32,3.673 0,5.107 -8.029,0 0,-16.126 7.851,0 9.129,8.802 z"
           id="path16"
           inkscape:connector-curvature="0" />
        <path
           style="fill:#1a1a1a;stroke:none"
           d="m 198.783,718.289 9.165,-16.126 8.525,0 9.165,16.126 -8.348,0 -0.995,-2.128 -8.347,0 -0.96,2.128 -8.205,0 z m 13.357,-11.266 -2.594,5.778 5.293,0 -2.699,-5.778 z"
           id="path18"
           inkscape:connector-curvature="0" />
      </g>
      <g
         id="g20"
         style="fill:#1a1a1a">
        <path
           style="fill:#1a1a1a;stroke:none"
           d="m 227.501,721.801 -51.254,0 29.834,52.983 6.578,-5.728 -23.866,-39.857 38.946,-0.096 -0.238,-7.302 z"
           id="path22"
           inkscape:connector-curvature="0" />
        <path
           style="fill:#1a1a1a;stroke:none"
           d="m 116.819,721.801 51.254,0 -29.834,52.983 -6.578,-5.728 23.866,-39.857 -38.946,-0.096 0.238,-7.302 z"
           id="path24"
           inkscape:connector-curvature="0" />
        <path
           style="fill:#1a1a1a;stroke:none"
           d="m 143.949,779.036 27.975,-48.268 28.767,47.795 -7.596,3.429 -20.536,-36.71 -21.856,37.148 -6.754,-3.394 z"
           id="path26"
           inkscape:connector-curvature="0" />
      </g>
    </g>
  </g>
</svg>
