<?xml version="1.0" encoding="utf-8"?>
<!-- Generator: Adobe Illustrator 21.1.0, SVG Export Plug-In . SVG Version: 6.00 Build 0)  -->
<svg version="1.1"
	 id="svg2" inkscape:version="0.91 r13725" sodipodi:docname="Sena Colombia logo.svg" xmlns:cc="http://creativecommons.org/ns#" xmlns:dc="http://purl.org/dc/elements/1.1/" xmlns:inkscape="http://www.inkscape.org/namespaces/inkscape" xmlns:rdf="http://www.w3.org/1999/02/22-rdf-syntax-ns#" xmlns:sodipodi="http://sodipodi.sourceforge.net/DTD/sodipodi-0.dtd" xmlns:svg="http://www.w3.org/2000/svg"
	 xmlns="http://www.w3.org/2000/svg" xmlns:xlink="http://www.w3.org/1999/xlink" x="0px" y="0px" viewBox="0 0 100 100"
	 style="enable-background:new 0 0 100 100;" xml:space="preserve">
<style type="text/css">
	.st0{fill:#FFFFFF;}
</style>
<title  id="title3344">Sena Colombia logo</title>
<sodipodi:namedview  bordercolor="#666666" borderopacity="1" gridtolerance="10" guidetolerance="10" id="namedview28" inkscape:current-layer="svg2" inkscape:cx="58.4234" inkscape:cy="74.744321" inkscape:pageopacity="0" inkscape:pageshadow="2" inkscape:showpageshadow="false" inkscape:window-height="706" inkscape:window-maximized="1" inkscape:window-width="1366" inkscape:window-x="-8" inkscape:window-y="-8" inkscape:zoom="1" objecttolerance="10" pagecolor="#ffffff" showgrid="false">
	</sodipodi:namedview>
<g id="g4" transform="matrix(0.88434043,0,0,0.88972217,-102.22468,-597.42973)">
	<g id="g6">
		<path id="path8" inkscape:connector-curvature="0" class="st0" d="M184.5,686.9c0,6.8-5.5,12.3-12.3,12.3s-12.3-5.5-12.3-12.3
			c0-6.8,5.5-12.3,12.3-12.3S184.5,680.1,184.5,686.9z"/>
		<g id="g10">
			<path id="path12" inkscape:connector-curvature="0" class="st0" d="M133.3,706.8c-0.1-0.6-0.6-0.9-1.2-1.1
				c-0.6-0.2-1.4-0.3-2.2-0.3c-1.8,0-2.7,0.3-2.7,0.9c0,2.4,14.7,0.9,14.7,6.8c0,3.7-4.9,5.6-12,5.6c-6.7,0-11.2-2.5-11.3-5.4h8
				c0.2,0.6,0.7,1,1.4,1.3c0.7,0.3,1.6,0.4,2.4,0.4c2.1,0,3.5-0.4,3.5-1.2c0-2.4-14.7-0.8-14.7-6.9c0-3.4,4.7-5.2,11.1-5.2
				c7.1,0,10.3,2.3,10.9,5.1L133.3,706.8L133.3,706.8z"/>
			<path id="path14" inkscape:connector-curvature="0" class="st0" d="M145.9,718.3v-16.1h20.9v3.8h-12.5v2.3h10.6v3.8h-10.6v2.5h13
				v3.8L145.9,718.3L145.9,718.3z"/>
			<path id="path16" inkscape:connector-curvature="0" class="st0" d="M188.2,711l-0.3-3.7v-5.1h8v16.1h-7.9l-9.1-8.8l0.3,3.7v5.1
				h-8v-16.1h7.9L188.2,711L188.2,711z"/>
			<path id="path18" inkscape:connector-curvature="0" class="st0" d="M198.8,718.3l9.2-16.1h8.5l9.2,16.1h-8.3l-1-2.1h-8.3l-1,2.1
				H198.8L198.8,718.3z M212.1,707l-2.6,5.8h5.3L212.1,707z"/>
		</g>
		<g id="g20">
			<path id="path22" inkscape:connector-curvature="0" class="st0" d="M227.5,721.8h-51.3l29.8,53l6.6-5.7l-23.9-39.9l38.9-0.1
				L227.5,721.8z"/>
			<path id="path24" inkscape:connector-curvature="0" class="st0" d="M116.8,721.8h51.3l-29.8,53l-6.6-5.7l23.9-39.9l-38.9-0.1
				C116.6,729.1,116.8,721.8,116.8,721.8z"/>
			<path id="path26" inkscape:connector-curvature="0" class="st0" d="M143.9,779l28-48.3l28.8,47.8l-7.6,3.4l-20.5-36.7l-21.9,37.1
				L143.9,779L143.9,779z"/>
		</g>
	</g>
</g>
</svg>
